<svg xmlns="http://www.w3.org/2000/svg" width="56.417" height="57.375" viewBox="0 0 56.417 57.375"><path d="M199.508,399a1.763,1.763,0,1,0,1.763,1.763A2.012,2.012,0,0,0,199.508,399Z" transform="translate(-193.134 -351.798)" fill="#fff"/><path d="M224.155,294.54a7.4,7.4,0,0,0-9.359-4.34l-6.375,2.17a6.782,6.782,0,0,0-6.511-1.628l-7.325,1.9a5.388,5.388,0,0,1-4.34-.678,13.871,13.871,0,0,0-7.325-2.035h-2.17v-2.035a1.8,1.8,0,0,0-1.763-1.763h-9.223A1.8,1.8,0,0,0,168,287.893v24.144a1.8,1.8,0,0,0,1.763,1.763h9.223a1.8,1.8,0,0,0,1.763-1.763v-3.8h2.17a9.645,9.645,0,0,1,4.34.949l1.763.814a14.75,14.75,0,0,0,5.29,1.085,12.687,12.687,0,0,0,5.832-1.356c6.646-3.255,18.176-8.817,22.381-10.851a3.294,3.294,0,0,0,1.628-4.34ZM177.223,310.41h-5.832V289.657h5.832ZM220.9,296.032c-4.2,2.035-15.734,7.6-22.381,10.851a9.8,9.8,0,0,1-8.274.136l-1.763-.814a13.882,13.882,0,0,0-5.7-1.221h-2.17V293.32h2.17a11.782,11.782,0,0,1,5.561,1.492,8.832,8.832,0,0,0,6.918.949l7.325-1.9a3.837,3.837,0,0,1,4.34,2.17l-11.936,4.747a1.7,1.7,0,0,0-.949,2.17,1.763,1.763,0,0,0,1.628,1.085,1.223,1.223,0,0,0,.678-.136l13.428-5.426h.543V295.9l-.543-1.085,5.7-1.9a4.13,4.13,0,0,1,5.154,2.306v.136c.407.543.407.543.271.678Z" transform="translate(-168 -256.425)" fill="#fff"/><path d="M190.9,115.8h4.476a6.514,6.514,0,0,0,6.1,4.747,6.269,6.269,0,0,0,6.1-4.747H216.4a6.514,6.514,0,0,0,6.1,4.747,6.269,6.269,0,0,0,6.1-4.747h7.053a1.8,1.8,0,0,0,1.763-1.763v-7.6a1.611,1.611,0,0,0-1.356-1.628l-9.9-2.17-3.255-7.189a1.668,1.668,0,0,0-1.492-.949H203.654a1.762,1.762,0,0,0-1.628,1.085l-3.12,7.46h-8.138a1.8,1.8,0,0,0-1.763,1.763v9.359a2.031,2.031,0,0,0,1.9,1.628Zm10.58,1.221a2.984,2.984,0,1,1,2.984-2.984A2.846,2.846,0,0,1,201.483,117.021Zm21.16,0a2.984,2.984,0,1,1,2.984-2.984A3.011,3.011,0,0,1,222.643,117.021Zm-30.112-10.58h7.46a1.763,1.763,0,0,0,1.628-1.085l3.12-7.46H220.2l3.255,6.918a1.726,1.726,0,0,0,1.221.949l9.359,2.035v4.612h-5.29a6.514,6.514,0,0,0-6.1-4.747,6.269,6.269,0,0,0-6.1,4.747h-8.817a6.514,6.514,0,0,0-6.1-4.747,6.269,6.269,0,0,0-6.1,4.747h-2.848v-5.968Z" transform="translate(-185.749 -94.505)" fill="#fff"/></svg>