<svg xmlns="http://www.w3.org/2000/svg" width="46.252" height="54.819" viewBox="0 0 46.252 54.819"><g transform="translate(0)"><path d="M245.609,122.057h-2.035l-3.527-16.683a1.725,1.725,0,0,0-2.035-1.356l-33.1,6.918a1.725,1.725,0,0,0-1.356,2.035l1.9,9.223h-2.442a1.8,1.8,0,0,0-1.763,1.763v33.1a1.8,1.8,0,0,0,1.763,1.763h42.726a1.8,1.8,0,0,0,1.763-1.763V123.82a2.025,2.025,0,0,0-1.9-1.763Zm-8.41-14.378.678,3.12L207.9,117.038l-.678-3.12ZM208.58,120.294l29.977-6.239,1.628,7.867h-31.2Zm-3.934,34.86v-29.7h39.2v8.138H232.454a6.646,6.646,0,0,0,0,13.293h11.529v8.41H204.648Zm39.335-11.8H232.453a3.155,3.155,0,0,1-3.12-3.12,3.25,3.25,0,0,1,3.12-3.12h11.529Z" transform="translate(-201.255 -103.997)" fill="#fff"/><path d="M394.455,324.654a2.034,2.034,0,1,1-2.225,1.824,2.035,2.035,0,0,1,2.225-1.824" transform="translate(-362.617 -290.44)" fill="#fff"/></g></svg>