<svg xmlns="http://www.w3.org/2000/svg" width="16.666" height="16.666" viewBox="0 0 16.666 16.666"><path d="M8.875,11.354,7.125,9.6a.855.855,0,0,0-1.208,0,.871.871,0,0,0-.271.636.835.835,0,0,0,.25.614l2.333,2.334a.858.858,0,0,0,1.25,0l4.646-4.646a.493.493,0,0,0,.115-.552,1.946,1.946,0,0,1-.115-.657.88.88,0,0,0-1.229,0ZM10,18.333a8.118,8.118,0,0,1-3.25-.656A8.316,8.316,0,0,1,2.323,13.25,8.118,8.118,0,0,1,1.667,10a8.118,8.118,0,0,1,.656-3.25A8.316,8.316,0,0,1,6.75,2.323,8.118,8.118,0,0,1,10,1.667a8.118,8.118,0,0,1,3.25.656A8.316,8.316,0,0,1,17.677,6.75,8.118,8.118,0,0,1,18.333,10a8.118,8.118,0,0,1-.656,3.25,8.316,8.316,0,0,1-4.427,4.427A8.118,8.118,0,0,1,10,18.333Z" transform="translate(-1.667 -1.667)" fill="#eb00ff"/></svg>