<svg xmlns="http://www.w3.org/2000/svg" width="16" height="20" viewBox="0 0 16 20"><defs><style>.a{fill:#fff;}</style></defs><path class="a" d="M6,22a2.006,2.006,0,0,1-2-2V4a1.927,1.927,0,0,1,.588-1.413A1.925,1.925,0,0,1,6,2h7.175a1.978,1.978,0,0,1,.763.15,1.945,1.945,0,0,1,.637.425l4.85,4.85a1.945,1.945,0,0,1,.425.637,1.978,1.978,0,0,1,.15.763V20a2,2,0,0,1-2,2Zm6-3a.982.982,0,0,0,1-1h1a.982.982,0,0,0,1-1V14a.981.981,0,0,0-1-1H11V12h3a1,1,0,1,0,0-2H13a1,1,0,1,0-2,0H10a.982.982,0,0,0-1,1v3a.984.984,0,0,0,1,1h3v1H10a1,1,0,1,0,0,2h1a.984.984,0,0,0,1,1ZM14,8h3.5L13,3.5V7a.982.982,0,0,0,1,1Z" transform="translate(-4 -2)"/></svg>