<svg xmlns="http://www.w3.org/2000/svg" xmlns:xlink="http://www.w3.org/1999/xlink" width="231.555" height="350.967" viewBox="0 0 231.555 350.967"><defs><clipPath id="a"><rect width="231.555" height="350.967" fill="#0c001d"/></clipPath></defs><g clip-path="url(#a)"><path d="M109.414,106.731s4.237,12.9,3.779,19.4-1.145-5.249-6.987-12.78c0,0-1.03,5.249,1.718,13.807s3.894,14.493-5.153-5.591a27.457,27.457,0,0,0,2.405,13.579c3.206,6.5,2.977,14.036,2.748,17.346-.229,3.195-1.832-5.136-5.268-10.956,0,0,1.489,8.9.916,10.613-.458,1.712-2.748-8.558-10.652-13.807a50.512,50.512,0,0,1,6.3,30.7s-1.145-2.852-1.718-4.108c-.458-1.141.8,10.271.687,13.122s-4.581-8.216-6.643-9.357-.344,5.933,3.207,12.439,6.529,12.438-5.5-4.11c0,0-3.436-2.4,0,4.451s5.153,11.3-2.176.343c0,0-2.749-4.451,0,2.739s3.435,12.438,1.374,9.357-4.467-11.753-5.612-10.727-1.031,17.915-1.832,17.688c-.8-.114-1.718-4.565-1.718-4.565s-3.092-.342-2.062-14.949a23.722,23.722,0,0,0-4.81,10.726c-1.374,6.962-2.863-4.906,2.062-17.687a27.24,27.24,0,0,0-6.185,9.016c-2.061,5.248-.8-3.881,0-4.793.8-.8-2.977,2.167-1.145-1.712a90.647,90.647,0,0,1,6.07-9.928,11.208,11.208,0,0,0-7.331,3.88c-2.748,3.538-.458-3.082,2.062-5.135,0,0-10.309-6.277-5.841-10.727s-1.031-2.51,8.59-11.07c0,0-5.611,1.826-8.246,4.565s.343-4.108,20.158-18.6c0,0-13.973,6.961-18.325,11.412-4.238,4.451,4.466-10.613,12.713-17.916,0,0,4.925-3.766-4.466,0a10.477,10.477,0,0,0-5.612,9.244c-.229,6.618-2.405-2.51-2.176-6.847.115-4.223-1.718-5.934-2.52,1.483-.8,7.532-1.03,16.319-2.863,12.439,0,0-.8,8.216-2.176,6.618S55.7,133.776,55.7,133.776A80.211,80.211,0,0,0,52.833,150.1c-.687,9.357-2.405-7.19-2.061-9.7a28.257,28.257,0,0,0-2.863,9.929c-.8,6.276-2.062-4.223-1.718-8.673,0,0-3.207,3.881-2.52,12.1,0,0,0,3.424-1.374,2.51,0,0,.8,4.565,0,4.45s-2.749-4.793-2.749-11.639c0,0-2.748,3.195-2.519,9.586.114,6.276-2.863-.343-1.374-10.271,0,0,.458-3.082-1.833-.685-2.405,2.4-2.748,15.977-2.405,19.97.344,3.881-1.718,1.826-1.374-10.042,0,0-1.374-.457-1.489-3.082-.115-2.51-3.55,8.9-5.154,21.454,0,0-.8,4.793-1.374-3.88-.458-8.673,3.779-18.372,2.061-18.372s-5.84,13.807-6.528,20.769-1.718-3.2,0-12.667c0,0-.459-2.167-3.551,7.646s-6.3,15.52-3.894,4.793,4.81-12.9.115-7.3-1.833-1.712,2.863-8.33c0,0,0-6.619,3.207-10.385s10.995-10.727,10.652-16.2c0,0-4.123,2.168-5.269,4.907s-2.863-1.369,6.529-15.177c0,0,3.894-4.793-3.55,1.825s-6.529,3.766,1.489-4.793A9.806,9.806,0,0,0,21.91,121c-2.176,1.826-.459-1.483,4.924-6.276,0,0,1.031-3.766,6.873-7.532s5.955-7.3,10.308-9.586S58.332,90.07,67.15,90.64c8.7.457,20.388-.456,28.175,2.853,0,0-1.832-4.451-4.581-4.793s-9.735.114-10.422-.8c-.688-1.027,3.435-1.825,3.092-3.081-.344-1.141-5.154,1.825-6.644,1.825s4.81-3.538,4.467-4.793c-.344-1.141-7.9,3.88-9.392,3.88s6.643-5.249,4.924-6.961-7.9,5.82-8.59,5.82S70.014,79.8,70.014,79.8,63.371,84.364,62,84.364,75.168,73.637,75.626,72.04c.458-1.483-4.237-.457-12.828,6.847,0,0-5.612,4.907-2.061-1.027,3.435-5.934,4.924-8.559,0-4.793s-9.049,7.645-9.163,2.51c0,0-3.093,3.538-4.238,3.538s3.436-4.793,3.436-4.793-6.184,4.45-7.9,5.477,1.03-4.565,11.682-12.1c0,0,1.146-2.4-7.559,4.223s-12.141,9.243-7.675,3.766,18.325-14.15,17.066-15.52C55.238,58.8,29.926,73.295,29.01,73.067c-.8-.114,14.2-9.244,13.172-10.613S27.292,71.469,25.231,71.7c-2.062.115,3.55-4.907,3.55-4.907S15.5,73.865,13.205,73.295,32.332,62.682,32.218,60.628s-14.66,4.679-15.92,4.337c-1.145-.342,8.018-3.766,6.872-4.793S6.906,64.393,1.407,63.937s6.529-2.51,11.683-3.88,4.467-4.337,16.951-4.109c0,0-4.467-1.711-3.55-2.738.8-1.027,10.766-2.51,23.823,0,0,0,11.453,3.538-5.5-4.223,0,0-5.841-2.51,2.061-1.027s13.859,7.19,15.233,6.961c1.374-.114-7.674-5.477-7.56-6.5s13.172,7.189,15.691,8.559S66.807,51.5,64.4,50.015s.344-1.369,5.956,3.082,7.559,6.39,12.141,8.787,22.907,27.616,24.624,38.344c0,0,.344,1.483,1.375,1.711.687.114,1.832-1.255,1.6-4.108a12.2,12.2,0,0,0-1.26-4.223c-2.519-5.592-11.8-15.748-12.6-17.232s6.872,5.478,8.017,6.163,1.489-1.484-9.735-12.667c0,0-2.405-2.168,1.718,0s9.964,5.135.458-2.168C87.309,60.4,87.767,58,94.3,62.91s8.361,4.793,1.832-1.825-11.683-7.532-11.683-8.33,4.123,1.825,4.581.456-9.048-5.25-9.277-7.189c-.115-1.826,6.872,3.538,7.9,2.853s-4.924-4.907-4.924-5.82,4.237,2.739,4.581,1.712S81.123,37.8,76.886,34.837c-4.238-2.853,2.863-.456,6.184,2.054s7.216,2.738-3.436-4.793-6.643-7.531-4.466-6.162,8.018,6.162,8.59,5.135c.458-1.027-11.8-10.727-13.515-13.238s7.216,3.539,8.362,4.793c1.145,1.142,7.9,6.277.343-2.167-7.559-8.558-8.934-9.358-7.9-10.384s9.048,9.357,9.392,8.329S74.595,7.335,68.3,2.77s.344-3.08,4.925,1.485,5.5,6.618,4.81,2.053,1.832-1.825,2.863,3.424S83.3,16.921,83.758,14.3c.458-2.51,1.833-7.189,2.52-2.738s1.145,2.852,1.832,5.249S88,24.8,89.256,24.8c1.374,0,1.145-4.109,1.488-6.162s1.833-2.054,2.062,3.081.8,14.264,2.405,13.123c1.489-1.141,0-8.9.458-10.042s1.832,3.766,2.061,8.673,1.146,5.82,1.833,4.793,1.031-5.934,1.832-6.276,1.718,5.82,1.375,10.613-1.833,8.558-.8,8.9,2.176-3.766,2.061-7.645,1.146-1.826,1.375-.342a53.881,53.881,0,0,1,.458,13.465c-.687,5.82,1.03,3.538,1.832,1.826s1.145.114.458,3.766A8.652,8.652,0,0,0,109.3,68.73s-.687-10.271.344-14.607.687,2.168,1.031,4.565,1.832,2.51,1.718-2.739c0-5.249-3.436-10.27-1.947-15.862s-.344,2.51,1.03,5.82c1.375,3.195-.114-.343.917-7.646s3.55-15.976,3.321-12.1c-.115,3.88-2.176,13.922,0,13.237s0-16.2,4.123-19.285c0,0,1.145-2.4,0,3.424s-.8,12.781.572,10.613,2.176-11.754,4.581-13.466c0,0,1.489-4.907,2.52-4.793s-3.55,11.3-1.031,10.728c2.52-.457,1.375-11.64,4.238-13.124,0,0,.114,2.054,0,8.33,0,0,0,2.168,1.374-1.369s6.873-12.78,11.683-13.123c0,0,2.405-.684,0,1.483s-7.216,7.988-5.269,7.646c1.833-.342,10.423-9.358,15.577-7.874,0,0,2.52.343-1.031,1.826s-13.286,8.33-12.026,9.244c1.374.8,6.3-4.223,10.423-2.739,0,0,1.832,1.027-1.145,1.712-3.093.684-10.08,5.249-7.675,4.907s6.185-1.712,6.185.114-9.965,2.738-9.965,4.565,4.925-1.483,5.612-.457-3.207,2.853-6.3,3.881-7.216,2.51-4.581,5.591c2.519,3.082,5.154-4.45,8.247-5.249s3.092-4.108,5.5-4.108-2.52,2.853-2.176,4.907,9.278-8.33,12.484-5.934c0,0,1.833-.114-7.9,5.934s3.779-1.826,6.529-2.168-4.123,2.51-5.841,4.451,7.331.114,7.331,1.369-7.331,1.369-7.789,2.054-.458,1.483-3.55,1.825,1.832,1.141,6.3,1.141,4.581,1.369.114,2.054-11.682.684-9.048,2.168c2.519,1.483,6.3,1.369,6.3,2.167s-6.185-.342-10.652.343,1.832.8,1.718,2.053c-.115,1.141-6.529-.114-6.873,1.484-.344,1.711,8.59.456,10.308,1.825s-10.995.342-13.515,3.424,6.873.342,6.644,1.712c-.115,1.369-9.049.114-9.278,1.369-.114,1.141,3.092,1.711,1.718,2.51s-7.216,1.825-3.207,4.451c3.894,2.51,8.362-1.027,11.8-3.424s24.166-20.656,37.8-22.367,15.691-.114,13.515.114c-2.176.342-6.529,0-6.643.8s-.458,1.483-4.466,1.711c-3.894.114-5.5,1.483-4.466,2.054,1.03.456,4.466.684,3.55,1.711a4.825,4.825,0,0,1-2.863,1.141s5.84.342,6.3,1.141-4.581.342-6.529,1.027c0,0,2.061,2.168-1.489,2.4a15.664,15.664,0,0,0-6.529,1.826s4.466,0,3.436.684-4.925.685-6.644,1.712,12.484-1.712,13.973.342-4.581.114-17.065,2.852,3.207,1.027,6.3,1.484,3.207,1.026-2.749,1.483c0,0,1.375,1.369-6.643,2.168s-13.859,3.081-3.207,3.423,13.515.685,14.546,2.739a10.022,10.022,0,0,1,5.955,4.451c2.405,3.766-2.749-2.4-4.81-2.511s4.925,4.565,6.644,8.33-3.894-4.222-9.049-5.934,2.061,3.538,3.55,5.82c1.489,2.168.687,3.2.687,3.2s1.833,1.369,1.718,2.51-2.176-2.738-5.153-4.451.687,1.027,1.03,2.51-1.832-1.369-5.955-4.108-14.66-7.874-15.92-5.478c-1.145,2.4,6.987,2.511,12.026,8.673,0,0,2.749,3.081-2.863-.685s-9.621-5.249-8.934-4.108,5.955,3.424,6.643,5.135-2.749-1.369-5.956-2.054.458,1.141,1.375,2.853-1.031,1.483-2.405.684c0,0-2.176,2.51-6.643,1.027a17.249,17.249,0,0,1-8.59,2.054c-4.352-.342-8.018,1.141-4.581,4.451,3.435,3.195,16.721-1.027,22.1-2.51,5.268-1.484,13.859-4.109,30.924-2.853,17.065,1.141,25.2,2.738,27.488,4.451,2.405,1.711,9.736.342,15.92,5.934s-1.031-.8-6.3-1.712-6.872,0-3.436,1.712,13.515,7.988,15.233,10.955c1.718,2.853.344,1.483-4.237-1.141,0,0,4.81,3.424,5.039,6.619,0,0,1.718,2.168,1.031,3.081-.687.8-6.644-6.162-9.392-7.531s3.206,2.738,4.466,6.162c1.145,3.424-12.484-13.237-16.951-15.178-4.466-1.825,5.612,5.82,9.049,11.754s-3.207-3.081-5.5-5.135c-2.176-2.054-12.37-11.069-10.423-8.33,1.832,2.738,11.339,15.52,12.484,20.769s-8.018-12.438-14.889-19.741-2.405.8.114,4.451,8.247,11.3,8.362,14.264c.114,1.141-1.6-.913-3.78-3.995-3.55-5.021-8.476-12.666-9.506-13.351-1.718-1.141,7.33,12.781,9.277,15.178,1.833,2.4-1.374,1.825-12.713-13.58,0,0-1.718-3.081-3.092-2.738s8.7,15.976,14.545,24.078-9.964-7.531-12.14-10.955-.8,1.826,2.519,7.189c3.436,5.25-3.894-1.825-6.872-7.531,0,0-2.176-.457-3.894-4.451S177.1,100,178.592,104.334c1.489,4.223,7.56,13.922,8.7,15.862s-2.519-1.369-6.3-6.961-.458,1.712.8,4.223c1.374,2.51-3.092-1.483-6.3-7.645s-5.5-9.244-6.184-6.961c-.687,2.168,4.581,8.216,4.81,9.244.114,1.026-3.779-2.853-5.612-5.478-1.832-2.51-4.581-1.369-2.176,1.369s19.127,15.178,21.418,20.085c2.176,4.907,2.406,9.928,3.894,12.9,1.489,3.081,6.987,10.271,4.925,14.493a17.991,17.991,0,0,1-1.489,9.7c-2.405,4.565,0-.8-.343-5.477-.344-4.565-.688,3.88-1.718,5.249s.343-6.162-.688-8.673-.8,3.88-1.03,5.249c-.115,1.369-.115-7.189-1.489-9.7s-.344,11.069-1.145,12.324-1.031-11.982-2.405-16.2-.688,6.961-1.031,7.873-.115-4.45-1.718-7.873,0,9.7-.458,12.9S181,151.464,181,151.464s-1.717.342-2.748-9.929-2.52-6.276-2.062,3.881-1.488,4.564-1.832-2.4-1.031-10.043-1.374-2.739-.687,14.95-1.489,8.9a80.09,80.09,0,0,1-.687-11.07s-1.489,0-1.489-4.108.458-12.1-1.374-11.069-1.489,14.949-1.031,21.111-1.718-1.825-2.52-9.357c0,0-1.03-8.33-1.145,3.538-.115,11.982-1.489-3.2-1.718-6.619-.114-3.424-1.374-2.168-1.374,3.538s-1.718-2.51-1.489-8.33-.687-7.531-1.031-3.538c-.343,3.88-1.03,9.928-1.374,8.673s.458-11.3-1.031-12.438-1.145,13.807-2.061,12.9-1.375-5.478-1.375-5.478-1.717-.342-1.832-7.645-2.405-9.586-2.863-5.934a48.073,48.073,0,0,0,.687,13.579c.8,3.082-2.749-2.738-3.207-5.135,0,0-2.176,2.053-3.092-2.853,0,0-1.145,4.109-2.748,1.027,0,0-4.123-1.369-6.3-6.847s-6.3-4.564-4.81-.456,6.529,8.33,20.731,18.258,18.668,25.22,14.889,37.545c0,0-1.374,1.027-.114,7.188s0,12.326-.688,10.044c-.687-2.168-.114-7.189-1.718-6.619-1.488.456.8,6.161-.458,12.1-1.374,5.934-1.374-6.847-1.488-9.7s-1.031,2.169-1.146,6.848c-.114,4.565-.458-1.826-1.03-7.3s.8-10.271-1.031-12.439.343,12.325-.8,16.889-2.519-9.015-2.061-12.438,0-17-2.062-9.7-.8,17.916-1.832,17.345c-1.031-.456-.687-11.754-.687-11.754s-1.833-1.14-1.146-6.5c.688-5.249-3.206-4.223-2.863,5.934.344,10.271-2.519.342-1.489-5.592s2.864-11.3,2.062-13.465-4.238,12.1-5.5,16.547c-1.146,4.451,0-7.531,2.176-14.836s1.488-10.727.114-8.216-4.466,10.727-3.436,16.89-2.748-1.369-2.061-9.358.114-14.264-.8-11.412-1.03,11.982-1.374,14.15-1.489-3.766-1.374-5.934c0,0-1.375,1.027-1.489-2.4s1.489-12.667.343-14.835-2.622,6.682-3.081,11.361c-.458,4.564-1.538-3.8-.164-7.227s1.527-8.357-.191-10.411-2.815-.7-2.929.785-9.9,15.011,34.421,86.676c0,0,47.641,86.451,56.232,139.858H207.34c1.146,1.71-23.583-72.908-55.777-134.087,0,0-31.04-50.661-35.114-90.212-5.383-21.569-7.035-19.909-7.035-19.909" transform="translate(0 0)" fill="#0c001d"/></g></svg>