<svg xmlns="http://www.w3.org/2000/svg" width="168.268" height="279.166" viewBox="0 0 168.268 279.166"><path d="M89.372,77.4s-3.039,9.42-2.7,14.019.9-3.813,5.066-9.2c0,0,.788,3.813-1.238,9.982s-2.814,10.43,3.715-4.038a20.114,20.114,0,0,1-1.688,9.758c-2.364,4.71-2.139,10.2-2.027,12.56s1.351-3.7,3.827-7.85c0,0-1.013,6.392-.675,7.626s2.026-6.168,7.654-9.981a36.575,36.575,0,0,0-4.615,22.205s.9-2.131,1.238-2.916c.337-.9-.563,7.4-.45,9.532s3.377-5.944,4.84-6.728.225,4.261-2.364,8.971-4.727,8.972,3.94-2.915c0,0,2.476-1.683,0,3.253s-3.715,8.187,1.576.224c0,0,2.027-3.253,0,2.018-2.026,5.159-2.476,8.972-1.013,6.729s3.265-8.523,4.052-7.738c.9.784.788,12.9,1.351,12.785s1.237-3.365,1.237-3.365,2.252-.225,1.463-10.879a17.091,17.091,0,0,1,3.49,7.739c1.012,5.046,2.138-3.589-1.463-12.785a20.6,20.6,0,0,1,4.5,6.505c1.463,3.813.562-2.8,0-3.477-.563-.561,2.139,1.57.787-1.234a70.208,70.208,0,0,0-4.389-7.178,7.839,7.839,0,0,1,5.291,2.8c2.026,2.579.337-2.243-1.463-3.7,0,0,7.428-4.6,4.164-7.739-3.264-3.253.788-1.795-6.191-7.963,0,0,4.052,1.346,5.966,3.365,1.8,2.019-.225-2.915-14.632-13.458,0,0,10.13,5.047,13.282,8.3,3.039,3.252-3.264-7.627-9.118-12.9,0,0-3.6-2.692,3.265,0a7.552,7.552,0,0,1,4.051,6.616c.113,4.822,1.688-1.794,1.576-4.934s1.238-4.262,1.8,1.122.788,11.888,2.139,8.972c0,0,.563,5.944,1.576,4.822s1.012-9.084,1.012-9.084a60.776,60.776,0,0,1,2.139,11.888c.563,6.841,1.689-5.158,1.463-7.065a22.309,22.309,0,0,1,2.139,7.177c.675,4.6,1.463-3.027,1.238-6.28,0,0,2.364,2.8,1.8,8.747,0,0,0,2.467,1.013,1.795,0,0-.563,3.365,0,3.253s2.026-3.477,2.026-8.412c0,0,2.027,2.356,1.8,6.953-.113,4.6,2.139-.224,1.013-7.4,0,0-.338-2.243,1.35-.448,1.688,1.682,2.026,11.551,1.688,14.467-.225,2.8,1.238,1.346,1.012-7.289,0,0,1.013-.336,1.126-2.243.112-1.795,2.589,6.392,3.714,15.476,0,0,.563,3.477,1.013-2.8.337-6.281-2.7-13.346-1.463-13.346s4.164,9.982,4.727,15.028c.45,5.047,1.238-2.355,0-9.084,0,0,.338-1.57,2.589,5.5,2.252,7.177,4.615,11.215,2.814,3.477-1.689-7.738-3.489-9.42-.112-5.27,3.376,4.037,1.35-1.234-2.139-6.057,0,0,0-4.822-2.364-7.514s-7.879-7.739-7.654-11.663c0,0,2.927,1.57,3.827,3.589s2.139-1.009-4.727-10.99c0,0-2.814-3.477,2.589,1.346s4.727,2.691-1.125-3.477a6.774,6.774,0,0,1,3.039,1.57c1.576,1.346.337-1.122-3.6-4.6,0,0-.788-2.691-4.952-5.383s-4.277-5.271-7.429-6.953c-3.039-1.571-10.355-5.383-16.659-5.047s-14.745-.336-20.373,2.131c0,0,1.351-3.253,3.377-3.477s7.091.112,7.541-.56c.45-.785-2.476-1.346-2.251-2.243s3.714,1.346,4.84,1.346S109.745,60.8,109.97,59.9s5.741,2.8,6.754,2.8c1.125,0-4.84-3.813-3.6-5.046s5.741,4.15,6.191,4.15-1.351-3.477-1.351-3.477,4.84,3.364,5.854,3.364-9.568-7.738-9.906-8.859,3.04-.336,9.231,4.934c0,0,4.052,3.589,1.576-.785-2.477-4.261-3.6-6.168,0-3.477s6.528,5.5,6.641,1.795c0,0,2.251,2.579,3.039,2.579.9,0-2.476-3.477-2.476-3.477s4.5,3.253,5.74,3.926c1.238.784-.787-3.365-8.442-8.748,0,0-.9-1.682,5.4,3.028,6.3,4.822,8.78,6.616,5.516,2.691S126.855,45.1,127.755,44.087s19.135,9.533,19.811,9.42c.562-.112-10.243-6.616-9.568-7.626.788-1.009,10.805,6.5,12.269,6.617s-2.589-3.589-2.589-3.589,9.455,4.71,11.031,4.261c1.576-.336-13.845-7.626-13.733-9.2s10.693,3.365,11.481,3.14-5.853-2.691-4.952-3.477,11.707,3.028,15.759,2.691c3.939-.336-4.728-1.794-8.443-2.8s-3.264-3.14-12.269-3.028c0,0,3.264-1.234,2.589-2.018-.563-.785-7.766-1.795-17.221,0,0,0-8.33,2.579,3.939-3.028,0,0,4.164-1.795-1.463-.785-5.741,1.122-10.018,5.159-11.03,5.047s5.515-3.926,5.4-4.71S119.2,40.162,117.4,41.172s2.476-3.925,4.164-5.046-.225-1.009-4.277,2.242-5.4,4.711-8.78,6.393-16.546,19.962-17.784,27.7c0,0-.225,1.122-1.012,1.234-.563.112-1.351-.9-1.126-3.028a9.06,9.06,0,0,1,.9-3.027c1.8-4.038,8.554-11.327,9.117-12.449s-4.953,3.925-5.853,4.486c-.9.448-1.125-1.122,7.091-9.084,0,0,1.689-1.57-1.238,0s-7.2,3.7-.337-1.57,6.415-7.065,1.688-3.477S93.875,49.022,98.6,44.2s8.442-5.383,8.442-6.057c0-.56-2.926,1.346-3.376.337s6.528-3.814,6.641-5.159-4.953,2.579-5.741,2.131,3.6-3.589,3.6-4.15-3.039,2.019-3.377,1.235c-.225-.785,4.5-5.047,7.541-7.178s-2.139-.336-4.5,1.459-5.178,2.018,2.477-3.477c7.653-5.383,4.839-5.383,3.264-4.486-1.575,1.009-5.853,4.486-6.191,3.7s8.555-7.739,9.793-9.645c1.238-1.795-5.178,2.579-6.079,3.477s-5.74,4.6-.225-1.571c5.4-6.168,6.416-6.728,5.741-7.514-.788-.785-6.528,6.729-6.753,6.056-.225-.785,4.164-7.963,8.78-11.327s-.225-2.243-3.6,1.122-3.94,4.822-3.49,1.459-1.35-1.347-2.138,2.467-1.688,5.158-2.139,3.365c-.338-1.795-1.351-5.159-1.8-2.019-.45,3.253-.9,2.131-1.35,3.813s.112,5.832-.9,5.832-.9-2.915-1.126-4.486c-.225-1.458-1.35-1.458-1.462,2.243s-.563,10.318-1.689,9.532c-1.126-.9,0-6.392-.338-7.289s-1.35,2.691-1.463,6.281-.9,4.149-1.35,3.476c-.45-.784-.788-4.261-1.35-4.6-.563-.225-1.238,4.149-1.013,7.626s1.35,6.168.563,6.393-1.576-2.692-1.463-5.5-.9-1.346-1.013-.224a38.387,38.387,0,0,0-.338,9.757c.451,4.15-.787,2.579-1.35,1.346s-.9.112-.337,2.691a5.822,5.822,0,0,1-.9,4.486s.45-7.4-.225-10.654c-.787-3.253-.45,1.571-.787,3.365-.225,1.683-1.351,1.795-1.238-2.019s2.476-7.4,1.35-11.438.225,1.794-.788,4.149.113-.224-.675-5.5c-.675-5.27-2.589-11.551-2.476-8.747s1.575,10.094,0,9.645,0-11.663-2.927-13.906c0,0-.9-1.682,0,2.467s.563,9.2-.338,7.627c-1.012-1.57-1.575-8.523-3.376-9.757,0,0-1.126-3.59-1.8-3.477-.787.112,2.589,8.187.788,7.738-1.8-.336-1.013-8.411-3.039-9.532,0,0-.113,1.458,0,6.056,0,0,0,1.571-1.013-1.009S67.085,5.62,63.6,5.284c0,0-1.689-.448,0,1.122s5.178,5.832,3.827,5.5-7.542-6.729-11.256-5.72c0,0-1.8.224.788,1.346s9.68,6.056,8.667,6.617-4.614-3.028-7.541-2.019c0,0-1.35.785.9,1.234S66.3,17.171,64.5,16.947c-1.689-.224-4.5-1.234-4.5.112s7.2,2.019,7.2,3.365-3.6-1.122-4.051-.336,2.364,2.131,4.614,2.8c2.252.785,5.178,1.795,3.377,4.038s-3.714-3.253-5.966-3.814S62.921,20.2,61.233,20.2s1.8,2.131,1.576,3.589-6.641-6.056-9-4.262c0,0-1.35-.112,5.741,4.262,7.091,4.486-2.7-1.346-4.727-1.57s2.926,1.794,4.164,3.252-5.291.113-5.291,1.009,5.291,1.009,5.629,1.459.337,1.122,2.589,1.346-1.351.9-4.615.9-3.377,1.009-.112,1.459,8.442.448,6.528,1.57-4.614,1.009-4.614,1.57,4.5-.224,7.653.225c3.265.448-1.35.56-1.237,1.458s4.727-.112,4.953,1.122-6.191.336-7.429,1.346,7.879.224,9.793,2.467c1.8,2.243-4.953.224-4.84,1.234s6.529.112,6.641,1.009-2.251,1.234-1.238,1.795,5.178,1.346,2.364,3.252c-2.814,1.795-6.078-.784-8.555-2.467S49.751,31.3,39.846,30.068s-11.368-.112-9.793.112,4.727,0,4.84.561.337,1.122,3.264,1.234c2.814.112,3.939,1.122,3.264,1.458-.788.337-3.264.449-2.589,1.234.563.785,2.139.9,2.139.9s-4.165.224-4.615.9c-.337.56,3.377.224,4.727.785,0,0-1.462,1.57,1.126,1.682a11.57,11.57,0,0,1,4.727,1.346s-3.264,0-2.477.449,3.6.448,4.84,1.234-9-1.234-10.13.224,3.376.112,12.381,2.131-2.364.784-4.614,1.122-2.364.784,2.026,1.122c0,0-1.013,1.009,4.84,1.57s10.018,2.243,2.364,2.467-9.793.448-10.468,2.019a6.843,6.843,0,0,0-4.277,3.253c-1.689,2.8,2.026-1.683,3.489-1.795s-3.6,3.365-4.839,6.056S42.885,57.1,46.6,55.863s-1.463,2.579-2.589,4.149-.45,2.355-.45,2.355-1.35,1.009-1.238,1.795c.113.9,1.576-2.019,3.715-3.252s-.451.784-.788,1.794c-.225,1.122,1.35-1.009,4.277-2.915,2.927-2.019,10.693-5.72,11.481-3.925.9,1.682-5.065,1.794-8.667,6.28,0,0-2.026,2.243,2.139-.449s6.979-3.813,6.416-2.915-4.277,2.467-4.84,3.7,2.027-1.009,4.277-1.458c2.364-.448-.337.9-1.012,2.131s.787,1.122,1.688.448c0,0,1.576,1.795,4.84.785a12.749,12.749,0,0,0,6.191,1.458c3.039-.224,5.853.9,3.377,3.252S63.258,68.311,59.431,67.3c-3.827-1.122-10.018-2.915-22.4-2.131-12.381.9-18.235,2.019-19.923,3.253s-7.091.224-11.481,4.262c-4.5,4.037.788-.561,4.614-1.234,3.827-.561,4.953,0,2.477,1.234S2.926,78.517,1.688,80.536c-1.237,2.13-.225,1.122,3.04-.9,0,0-3.49,2.467-3.6,4.822,0,0-1.238,1.57-.675,2.243S5.29,82.218,7.2,81.32s-2.364,2.019-3.264,4.486,9-9.645,12.269-10.99-4.052,4.149-6.528,8.523,2.364-2.243,3.939-3.7,8.893-7.963,7.541-6.056c-1.35,2.018-8.217,11.214-9,15.028s5.854-8.972,10.806-14.244,1.689.561-.113,3.253c-1.8,2.579-5.966,8.187-6.078,10.318,0,.9,1.125-.673,2.814-2.916,2.589-3.589,6.078-9.083,6.866-9.645,1.238-.9-5.291,9.2-6.641,10.991-1.35,1.682,1.013,1.346,9.118-9.87,0,0,1.237-2.243,2.251-2.019s-6.3,11.551-10.468,17.383,7.2-5.383,8.78-7.85.563,1.346-1.8,5.158c-2.477,3.813,2.814-1.346,4.953-5.383,0,0,1.575-.336,2.814-3.252,1.238-2.8,4.277-7.4,3.264-4.262-1.125,3.028-5.4,10.094-6.3,11.439s1.8-1.009,4.614-5.047.338,1.235-.562,3.028,2.251-1.122,4.614-5.5c2.364-4.486,3.94-6.616,4.5-5.046S42.21,81.1,42.1,81.77c-.112.784,2.7-2.131,4.052-3.926s3.377-1.009,1.575,1.009C46.037,80.872,33.88,89.844,32.3,93.433s-1.688,7.177-2.814,9.42-5.065,7.4-3.6,10.43a13.156,13.156,0,0,0,1.126,7.065c1.689,3.365,0-.561.225-3.926s.45,2.8,1.238,3.814-.226-4.486.45-6.281c.787-1.794.562,2.8.787,3.814.113,1.009.113-5.159,1.126-7.066,1.012-1.794.225,7.963.9,8.86.562.9.787-8.635,1.689-11.663,1.012-3.028.45,5.046.787,5.72.225.56.113-3.253,1.238-5.72s0,7.065.338,9.42,1.463-6.729,1.463-6.729,1.237.225,2.026-7.177,1.8-4.6,1.463,2.8,1.125,3.364,1.35-1.683.788-7.289,1.013-2.019.45,10.879,1.125,6.393a56.343,56.343,0,0,0,.45-7.963s1.125,0,1.125-2.915-.337-8.748,1.013-7.963,1.125,10.878.788,15.252c-.338,4.486,1.238-1.346,1.8-6.729,0,0,.788-6.056.9,2.579s1.126-2.355,1.238-4.822,1.013-1.57,1.013,2.579,1.238-1.794,1.125-6.056c-.112-4.149.45-5.383.788-2.579.225,2.8.788,7.177,1.013,6.28s-.338-8.187.787-8.971c1.126-.9.9,9.981,1.463,9.42S58.756,93.1,58.756,93.1s1.238-.224,1.35-5.495,1.689-6.953,2.139-4.262a35.68,35.68,0,0,1-.45,9.869c-.563,2.243,2.027-2.018,2.364-3.7,0,0,1.576,1.459,2.252-2.131,0,0,.9,2.916,2.026.785a8.818,8.818,0,0,0,4.615-4.934c1.576-3.925,4.614-3.365,3.489-.336-1.125,2.915-4.727,6.056-14.971,13.233S48.063,114.4,50.764,123.264c0,0,1.012.785.112,5.159s0,8.859.45,7.289.113-5.159,1.238-4.822-.563,4.486.338,8.747c1.012,4.262,1.012-4.934,1.125-7.065s.788,1.571.9,4.934.338-1.346.788-5.27c.337-3.925-.563-7.4.787-8.972s-.225,8.86.563,12.225c.9,3.365,1.8-6.505,1.463-8.972s0-12.337,1.463-7.065.562,12.9,1.35,12.561.45-8.524.45-8.524,1.35-.9.9-4.71,2.364-3.027,2.139,4.262c-.225,7.4,1.8.224,1.125-4.037s-2.138-8.187-1.462-9.758c.562-1.57,3.039,8.748,3.939,12s0-5.383-1.575-10.766c-1.576-5.27-1.126-7.738-.113-5.944s3.264,7.739,2.477,12.225,2.026-1.009,1.463-6.729c-.451-5.832-.113-10.318.562-8.3.788,2.131.788,8.635,1.013,10.2s1.125-2.691,1.013-4.261c0,0,1.012.784,1.125-1.683s-1.125-9.083-.225-10.766,2.7,4.822,3.039,8.187,1.238-2.915.225-5.383-2.139-5.832-.9-7.29a1.691,1.691,0,0,1,3.039.561c.113,1.122.225,17.607-34.218,62.915,0,0-42.66,51.924-45.361,124.933H10.58C9.792,280.384,8.667,208.385,61.12,143c0,0,17.221-27.028,22.512-49.906,3.264-16.822,5.741-15.7,5.741-15.7" transform="translate(0 0)" fill="#0c001d"/></svg>