<svg xmlns="http://www.w3.org/2000/svg" xmlns:xlink="http://www.w3.org/1999/xlink" width="627.907" height="482.707" viewBox="0 0 627.907 482.707"><defs><filter id="a" x="0" y="60.767" width="485.806" height="384.437" filterUnits="userSpaceOnUse"><feOffset dy="3" input="SourceAlpha"/><feGaussianBlur stdDeviation="36" result="b"/><feFlood flood-color="#ce00ff" flood-opacity="0.98"/><feComposite operator="in" in2="b"/><feComposite in="SourceGraphic"/></filter><filter id="c" x="66.903" y="0" width="561.004" height="482.707" filterUnits="userSpaceOnUse"><feOffset input="SourceAlpha"/><feGaussianBlur stdDeviation="49.5" result="d"/><feFlood flood-color="#0090ff"/><feComposite operator="in" in2="d"/><feComposite in="SourceGraphic"/></filter><radialGradient id="e" cx="0.699" cy="0.159" r="1.659" gradientTransform="translate(0.349) scale(0.5 1)" gradientUnits="objectBoundingBox"><stop offset="0" stop-color="#00edff"/><stop offset="0.519" stop-color="#214eff"/><stop offset="1" stop-color="#f0f"/></radialGradient></defs><g transform="translate(-773.056 -555.55)"><g transform="translate(881.056 704.05)"><g transform="matrix(1, 0, 0, 1, -108, -148.5)" filter="url(#a)"><path d="M0,168.437A185.737,185.737,0,0,1,107.4,0l162.4,168.437Z" transform="translate(108 165.77)" fill="#fff"/></g><g transform="matrix(1, 0, 0, 1, -108, -148.5)" filter="url(#c)"><path d="M162.4,185.707,0,17.267A184.987,184.987,0,0,1,78.3,0C180.848,0,264,83.156,264,185.707Z" transform="translate(215.4 148.5)" fill="#fff"/></g></g><g transform="translate(881.05 704.05)"><g transform="translate(0 0)"><path d="M257.669,144.45C155.115,144.45,71.96,227.6,71.96,330.159H443.378c0-102.555-83.154-185.709-185.709-185.709Z" transform="translate(-71.96 -144.45)" fill="url(#e)"/></g><g transform="translate(0 0)"><path d="M257.669,144.45C155.115,144.45,71.96,227.6,71.96,330.159H443.378c0-102.555-83.154-185.709-185.709-185.709Z" transform="translate(-71.96 -144.45)" fill="url(#e)"/></g></g></g></svg>