<svg xmlns="http://www.w3.org/2000/svg" xmlns:xlink="http://www.w3.org/1999/xlink" width="917.881" height="627.696" viewBox="0 0 917.881 627.696"><defs><filter id="a" x="0" y="74.248" width="696.455" height="515.943" filterUnits="userSpaceOnUse"><feOffset dy="3" input="SourceAlpha"/><feGaussianBlur stdDeviation="36" result="b"/><feFlood flood-color="#ce00ff" flood-opacity="0.98"/><feComposite operator="in" in2="b"/><feComposite in="SourceGraphic"/></filter><filter id="c" x="150.757" y="0" width="767.124" height="627.696" filterUnits="userSpaceOnUse"><feOffset input="SourceAlpha"/><feGaussianBlur stdDeviation="49.5" result="d"/><feFlood flood-color="#0090ff"/><feComposite operator="in" in2="d"/><feComposite in="SourceGraphic"/></filter><radialGradient id="e" cx="0.699" cy="0.159" r="1.659" gradientTransform="translate(0.349) scale(0.5 1)" gradientUnits="objectBoundingBox"><stop offset="0" stop-color="#00edff"/><stop offset="0.519" stop-color="#214eff"/><stop offset="1" stop-color="#f0f"/></radialGradient></defs><g transform="translate(-773.061 -555.55)"><g transform="translate(881.061 704.05)"><g transform="matrix(1, 0, 0, 1, -108, -148.5)" filter="url(#a)"><path d="M0,299.943C0,167.139,78.3,52.6,191.259,0l289.2,299.943Z" transform="translate(108 179.25)" fill="#fff"/></g><g transform="matrix(1, 0, 0, 1, -108, -148.5)" filter="url(#c)"><path d="M289.2,330.7,0,30.748A329.414,329.414,0,0,1,139.428,0c182.616,0,330.7,148.08,330.7,330.7Z" transform="translate(299.26 148.5)" fill="#fff"/></g></g><g transform="translate(881.05 704.05)"><g transform="translate(0 0)"><path d="M402.66,144.45c-182.623,0-330.7,148.077-330.7,330.7h661.4c0-182.623-148.077-330.7-330.7-330.7Z" transform="translate(-71.96 -144.45)" fill="url(#e)"/></g><g transform="translate(0 0)"><path d="M402.66,144.45c-182.623,0-330.7,148.077-330.7,330.7h661.4c0-182.623-148.077-330.7-330.7-330.7Z" transform="translate(-71.96 -144.45)" fill="url(#e)"/></g></g></g></svg>