<svg xmlns="http://www.w3.org/2000/svg" width="3377.961" height="237.618" viewBox="0 0 3377.961 237.618"><g transform="translate(-0.001 1.859)"><rect width="1380.431" height="0.648" transform="matrix(0.985, -0.171, 0.171, 0.985, 0.001, 234.639)" fill="#0672ff"/><rect width="1296.757" height="0.648" transform="matrix(0.983, -0.182, 0.182, 0.983, 105.576, 234.738)" fill="#0672ff"/><rect width="1213.27" height="0.648" transform="matrix(0.981, -0.195, 0.195, 0.981, 211.138, 234.763)" fill="#0672ff"/><rect width="1130.008" height="0.648" transform="translate(316.695 234.76) rotate(-12.068)" fill="#0672ff"/><rect width="1047.026" height="0.648" transform="translate(422.33 235.1) rotate(-13.079)" fill="#0672ff"/><rect width="964.398" height="0.648" transform="matrix(0.97, -0.245, 0.245, 0.97, 527.795, 234.71)" fill="#0672ff"/><rect width="882.222" height="0.648" transform="translate(633.235 234.297) rotate(-15.47)" fill="#0672ff"/><rect width="800.637" height="0.648" transform="translate(738.804 234.39) rotate(-17.106)" fill="#0672ff"/><rect width="719.844" height="0.648" transform="matrix(0.945, -0.328, 0.328, 0.945, 844.496, 234.832)" fill="#0672ff"/><rect width="640.143" height="0.648" transform="matrix(0.93, -0.369, 0.369, 0.93, 949.967, 234.624)" fill="#0672ff"/><rect width="561.999" height="0.648" transform="translate(1055.578 234.779) rotate(-24.858)" fill="#0672ff"/><rect width="486.165" height="0.648" transform="matrix(0.875, -0.485, 0.485, 0.875, 1160.978, 234.52)" fill="#0672ff"/><rect width="413.909" height="0.648" transform="translate(1266.6 234.696) rotate(-34.766)" fill="#0672ff"/><rect width="347.475" height="0.648" transform="translate(1372.171 234.775) rotate(-42.808)" fill="#0672ff"/><rect width="290.875" height="0.648" transform="translate(1477.672 234.792) rotate(-54.249)" fill="#0672ff"/><rect width="250.858" height="0.648" transform="translate(1583.141 234.843) rotate(-70.184)" fill="#0672ff"/><rect width="0.648" height="236.016" transform="translate(1688.699 -1.058)" fill="#0672ff"/><rect width="0.648" height="250.858" transform="translate(1709.272 -0.948) rotate(-19.807)" fill="#0672ff"/><rect width="0.648" height="290.875" transform="translate(1729.868 -0.868) rotate(-35.767)" fill="#0672ff"/><rect width="0.648" height="347.474" transform="matrix(0.679, -0.734, 0.734, 0.679, 1750.465, -0.82)" fill="#0672ff"/><rect width="0.648" height="413.909" transform="translate(1771.054 -0.791) rotate(-55.235)" fill="#0672ff"/><rect width="0.648" height="486.165" transform="matrix(0.485, -0.874, 0.874, 0.485, 1791.635, -0.774)" fill="#0672ff"/><rect width="0.648" height="562" transform="translate(1812.21 -0.763) rotate(-65.168)" fill="#0672ff"/><rect width="0.648" height="640.143" transform="matrix(0.369, -0.93, 0.93, 0.369, 1832.781, -0.756)" fill="#0672ff"/><rect width="0.648" height="719.844" transform="translate(1853.348 -0.751) rotate(-70.86)" fill="#0672ff"/><rect width="0.648" height="800.637" transform="matrix(0.295, -0.956, 0.956, 0.295, 1873.912, -0.748)" fill="#0672ff"/><rect width="0.648" height="882.222" transform="translate(1894.475 -0.745) rotate(-74.483)" fill="#0672ff"/><rect width="0.648" height="964.398" transform="translate(1915.036 -0.744) rotate(-75.834)" fill="#0672ff"/><rect width="0.648" height="1047.027" transform="translate(1935.596 -0.742) rotate(-76.973)" fill="#0672ff"/><rect width="0.648" height="1130.007" transform="translate(1956.155 -0.74) rotate(-77.944)" fill="#0672ff"/><rect width="0.648" height="1213.269" transform="translate(1976.714 -0.739) rotate(-78.783)" fill="#0672ff"/><rect width="0.648" height="1296.758" transform="translate(1997.271 -0.739) rotate(-79.513)" fill="#0672ff"/><rect width="0.648" height="1380.431" transform="translate(2017.913 -1.22) rotate(-80.115)" fill="#0672ff"/><rect width="690.568" height="0.648" transform="translate(1343.739 -0.584)" fill="#0672ff"/><rect width="708.015" height="0.648" transform="translate(1335.015 0.878)" fill="#0672ff"/><rect width="726.368" height="0.648" transform="translate(1325.839 2.416)" fill="#0672ff"/><rect width="745.697" height="0.648" transform="translate(1316.175 4.036)" fill="#0672ff"/><rect width="766.083" height="0.648" transform="translate(1305.982 5.744)" fill="#0672ff"/><rect width="787.615" height="0.648" transform="translate(1295.216 7.548)" fill="#0672ff"/><rect width="810.392" height="0.648" transform="translate(1283.827 9.457)" fill="#0672ff"/><rect width="834.526" height="0.648" transform="translate(1271.76 11.479)" fill="#0672ff"/><rect width="860.141" height="0.648" transform="translate(1258.953 13.625)" fill="#0672ff"/><rect width="887.379" height="0.648" transform="translate(1245.334 15.907)" fill="#0672ff"/><rect width="916.398" height="0.648" transform="translate(1230.824 18.339)" fill="#0672ff"/><rect width="947.38" height="0.648" transform="translate(1215.333 20.935)" fill="#0672ff"/><rect width="980.529" height="0.648" transform="translate(1198.759 23.713)" fill="#0672ff"/><rect width="1016.083" height="0.648" transform="translate(1180.982 26.692)" fill="#0672ff"/><rect width="1054.311" height="0.648" transform="translate(1161.868 29.895)" fill="#0672ff"/><rect width="1095.529" height="0.648" transform="translate(1141.258 33.349)" fill="#0672ff"/><rect width="1140.101" height="0.648" transform="translate(1118.973 37.084)" fill="#0672ff"/><rect width="1188.453" height="0.648" transform="translate(1094.797 41.135)" fill="#0672ff"/><rect width="1241.088" height="0.648" transform="translate(1068.479 45.546)" fill="#0672ff"/><rect width="1298.602" height="0.648" transform="translate(1039.722 50.365)" fill="#0672ff"/><rect width="1361.705" height="0.648" transform="translate(1008.171 55.653)" fill="#0672ff"/><rect width="1431.254" height="0.648" transform="translate(973.396 61.48)" fill="#0672ff"/><rect width="1508.29" height="0.648" transform="translate(934.878 67.935)" fill="#0672ff"/><rect width="1594.091" height="0.648" transform="translate(891.978 75.125)" fill="#0672ff"/><rect width="1690.242" height="0.648" transform="translate(843.902 83.182)" fill="#0672ff"/><rect width="1798.737" height="0.648" transform="translate(789.655 92.273)" fill="#0672ff"/><rect width="1922.115" height="0.648" transform="translate(727.966 102.611)" fill="#0672ff"/><rect width="2063.665" height="0.648" transform="translate(657.191 114.472)" fill="#0672ff"/><rect width="2227.721" height="0.648" transform="translate(575.163 128.218)" fill="#0672ff"/><rect width="2420.114" height="0.648" transform="translate(478.966 144.339)" fill="#0672ff"/><rect width="2648.878" height="0.648" transform="translate(364.584 163.509)" fill="#0672ff"/><rect width="2925.407" height="0.648" transform="translate(226.319 186.679)" fill="#0672ff"/><rect width="3266.402" height="0.648" transform="translate(55.822 215.252)" fill="#0672ff"/></g></svg>