<svg xmlns="http://www.w3.org/2000/svg" width="1171.799" height="316.174" viewBox="0 0 1171.799 316.174"><path d="M438.243,478.256l-20.125,59.851,26.639-32.569Z" transform="translate(504.702 -223.937)" fill="#130033"/><path d="M1088.411,514.844H974.823l56.794-86.27,39.54,20.13Z" transform="translate(-434.986 -200.674)" fill="#130033"/><path d="M853.153,466.428l37.922,23.005,44.031,43.135h-64.7Z" transform="translate(-216.982 -218.399)" fill="#130033"/><path d="M1138.421,385.842l-31.8-48.529v73.846l-24.995,60.953Z" transform="translate(-541.79 -157.943)" fill="#130033"/><path d="M1078.61,405.971l-20.854-37.764-50.487-30.895,31.8,48.529Z" transform="translate(-442.439 -157.942)" fill="#130033"/><path d="M912.331,488.325l32.728-17.064-48.552-7.2-22.1,1.26Z" transform="translate(-238.238 -217.29)" fill="#130033"/><path d="M965.713,357.591V314.64l42.952,79.456-22.1,1.26Z" transform="translate(-350.396 -147.326)" fill="#130033"/><path d="M1046.485,326.7l28.634-6.028,21.853-6.029v42.951Z" transform="translate(-481.654 -147.326)" fill="#130033"/><path d="M1186.64,379.973l-45.212-69.325,25.62-39.937,19.592,35.416Z" transform="translate(-621.809 -126.757)" fill="#130033"/><path d="M1161.646,537.136h-20.218l45.213-60.953Z" transform="translate(-621.809 -222.967)" fill="#130033"/><path d="M1188.574,345.815l5.275,75.011-52.421,55.267h47.146l45.212-60.953Z" transform="translate(-668.956 -161.924)" fill="#130033"/><path d="M1146.7,420.825l39.938-5.686-45.212-69.325Z" transform="translate(-621.808 -161.923)" fill="#130033"/><path d="M1221.976,222.274l-3.014-55.008-40.691,41.444,18.085,53.5Z" transform="translate(-676.737 -78.32)" fill="#130033"/><path d="M1066.077,306.127l50.487-12.057-42.2-23.36h-27.881Z" transform="translate(-501.246 -126.757)" fill="#130033"/><path d="M1247.427,345.815l-30.895,44.008,9.043,21.131,27.127,9.872Z" transform="translate(-727.808 -161.924)" fill="#130033"/><path d="M1233.987,245.2l-7.536,45.966,25.62,7.536Z" transform="translate(-732.453 -114.814)" fill="#130033"/><path d="M1344.079,428.574l-76.534,86.27h49.733l35.844-65.139Z" transform="translate(-855.355 -200.674)" fill="#130033"/><path d="M1279.5,478.183l-27.127-9.872-35.843,65.139h10.549Z" transform="translate(-754.609 -219.281)" fill="#130033"/><path d="M1373.141,428.574,1304.9,449.7l-20.345,65.139h12.057Z" transform="translate(-884.417 -200.674)" fill="#130033"/><path d="M1270.91,339.179l-25.62-7.536-18.838,37.344,13.564,14.2Z" transform="translate(-751.291 -155.288)" fill="#130033"/><path d="M1309.416,437.2,1284.55,401.87H1364.1l13.564,14.2Z" transform="translate(-888.938 -188.171)" fill="#130033"/><path d="M1373.018,331.644h-27.555l-70.832,37.344h79.549Z" transform="translate(-879.019 -155.288)" fill="#130033"/><path d="M1295.55,245.2l-26.374,18.085-8.716,27.881h27.554Z" transform="translate(-794.016 -114.814)" fill="#130033"/><path d="M1452.826,401.87,1412.888,436.2l19.969,40.6,44.835-39.6Z" transform="translate(-1057.214 -188.171)" fill="#130033"/><path d="M1462.622,533.45h-49.733l25.243-25.537,44.835-39.6Z" transform="translate(-1062.489 -219.281)" fill="#130033"/><path d="M1526.591,462.371l-29.388-4.608,29.388,37.679,19.969,7.533Z" transform="translate(-1170.917 -214.342)" fill="#130033"/><path d="M1585.367,561.688H1497.2l93.438-33.07,19.969,7.533Z" transform="translate(-1234.967 -247.519)" fill="#130033"/><path d="M1397.281,314.725l-43.029-19.215-27.8,56.559Z" transform="translate(-930.837 -138.369)" fill="#130033"/><path d="M1489.039,436.2l-29.388-4.608,32.483-22.024,36.842-7.7Z" transform="translate(-1133.365 -188.171)" fill="#130033"/><path d="M1472.011,295.51l-30.585,28.279-34.061,35.977,36.842-7.7Z" transform="translate(-1048.596 -138.369)" fill="#130033"/><path d="M1528.934,426.283l12.325-35.749,20.158,13.725Z" transform="translate(-1202.648 -182.863)" fill="#130033"/><path d="M1587.964,479.7l-46.953-15.072-6.256-40.481,23.821,17.875Z" transform="translate(-1232.289 -198.602)" fill="#130033"/><path d="M1602.989,390.534l-27.8,2.594-8.341,15.281,23.821,17.875Z" transform="translate(-1264.377 -182.863)" fill="#130033"/><path d="M1680.051,457.768l-23.634,22.606L1623.052,409.5l36.146,29.015Z" transform="translate(-1371.33 -191.742)" fill="#130033"/><path d="M1645.3,413.717l-22.244-11.846,7.646,33.07,20.854,19.257Z" transform="translate(-1342.83 -188.171)" fill="#130033"/><path d="M1649.715,393.128l-20.919-2.594-9.666,6.029,22.244,11.846Z" transform="translate(-1338.908 -182.863)" fill="#130033"/><path d="M1464.881,369.595l20.158,13.725,34.061-35.976-21.465-1.529Z" transform="translate(-1126.27 -161.924)" fill="#130033"/><path d="M1087.667,120.572l26.009-53.029,25.185,71.9-48.18,36.14Z" transform="translate(-545.442 -31.626)" fill="#130033"/><path d="M1109.507,1.87l-15.828,8.9-6.012,26.02,25.185,71.9Z" transform="translate(-519.432 -0.876)" fill="#130033"/><path d="M1057.928,30.305l18.685,32.062L1060.8,122Z" transform="translate(-467.381 -14.19)" fill="#130033"/><path d="M1030.218,85.644l-10.978,2.635-15.814,59.637,44.8,22.576Z" transform="translate(-410.007 -40.102)" fill="#130033"/><path d="M1075.5,238.888h27.881l26.771-13.564-6.472-22.576Z" transform="translate(-530.258 -94.934)" fill="#130033"/><path d="M1041.5,282.127l25.093-19.457-40.52-17.467L999.3,258.767Z" transform="translate(-426.177 -114.814)" fill="#130033"/><path d="M999.3,202.748l44.8,22.577,2.2,17.467-40.52-17.467Z" transform="translate(-405.879 -94.934)" fill="#130033"/><path d="M869.558,297.507l25.093-19.457,68.99,54.271Z" transform="translate(-254.241 -130.194)" fill="#130033"/><path d="M912.51,394.1,869.558,314.64l94.083,34.814-2.58,51.843Z" transform="translate(-254.241 -147.326)" fill="#130033"/><path d="M860.208,242.791l75.13-3.9-41.946-36.14-35.379,22.576Z" transform="translate(-219.798 -94.934)" fill="#130033"/><path d="M936.895,85.644l28.05,54.31,25.333,7.961L954.9,170.492Z" transform="translate(-316.684 -40.102)" fill="#130033"/><path d="M635.543,533.45h99.127l16.589-65.139-67.866,47.955Z" transform="translate(82.581 -219.281)" fill="#130033"/><path d="M795.895,477.6l59.154,43.016L807.2,537.8l-44.031-43.135Z" transform="translate(-89.073 -223.631)" fill="#130033"/><path d="M765.746,380.109l56.575,45.9v48.957l-59.154-43.016Z" transform="translate(-56.345 -177.981)" fill="#130033"/><path d="M865.239,270.711,901.348,283.9,859.1,328.885l-68.99-54.271Z" transform="translate(-149.699 -126.757)" fill="#130033"/><path d="M819.742,386.4l-19.606-49.444,5.278-41.444L763.167,340.5Z" transform="translate(-53.767 -138.369)" fill="#130033"/><path d="M723.014,423.892l-87.471-50.445,19.605,49.444v48.957Z" transform="translate(110.827 -174.862)" fill="#130033"/><path d="M640.821,283.9l24.334-13.187,57.858,105.076-87.471-50.445Z" transform="translate(110.827 -126.757)" fill="#130033"/><path d="M468.214,533.45H573.783l-36.195-37.543-52.784-27.6Z" transform="translate(349.038 -219.281)" fill="#130033"/><path d="M635.543,270.711l51.1,35.416,6.763,69.66Z" transform="translate(140.44 -126.757)" fill="#130033"/><path d="M530.405,480.92,561.6,436.3,526.121,452.08l-48.5,1.245Z" transform="translate(356.221 -204.294)" fill="#130033"/><path d="M544.337,337.313l32.749,17.122L599.6,405.728l-48.5,1.245Z" transform="translate(282.742 -157.943)" fill="#130033"/><path d="M563.28,249.194,529.1,296.052l32.748,17.122,30.615-10.135Z" transform="translate(297.974 -116.682)" fill="#130033"/><path d="M583.991,260.636l45.517,10.2,39.755-21.639-34.176,46.859Z" transform="translate(191.992 -116.682)" fill="#130033"/><path d="M477.62,369.511l57.992,5.636L522.829,395.1l-22.694,25.7Z" transform="translate(382.207 -173.019)" fill="#130033"/><path d="M473.6,350.451H519.4l-18.417,15.771-57.992-5.636Z" transform="translate(416.84 -164.095)" fill="#130033"/><path d="M477.621,425.767l22.694-25.7L513.1,380.11v29.882Z" transform="translate(404.72 -177.982)" fill="#130033"/><path d="M1361.8,279.213l-20.844,8.666h-30.9l43.028,19.215Z" transform="translate(-886.642 -130.738)" fill="#130033"/><path d="M1332.364,260.913l-22.306,18.4h30.9l20.844-8.666Z" transform="translate(-886.642 -122.169)" fill="#130033"/><path d="M296.823,380.109l96.141,63.9L321.95,432.3l-25.127-22.308Z" transform="translate(620.995 -177.981)" fill="#130033"/><path d="M430.369,480.92l36.195,37.543,20.125-59.851L461.561,436.3Z" transform="translate(456.257 -204.294)" fill="#130033"/><path d="M291.424,500.274l30.322,48.142H253.563L239.8,524.345Z" transform="translate(722.535 -234.247)" fill="#130033"/><path d="M368.023,562.129H421.3l-13.762-24.071-12.877-8.5Z" transform="translate(554.798 -247.96)" fill="#130033"/><path d="M296.824,478.256l6.514,27.282,12.877,8.5,51.623-24.071Z" transform="translate(646.122 -223.937)" fill="#130033"/><path d="M315.24,350.451l-18.416,15.771,96.141,63.9-26.719-58.355Z" transform="translate(620.995 -164.095)" fill="#130033"/><path d="M1557.607,522.879l-22.851,25.537,93.438-33.07-46.953-15.073Z" transform="translate(-1272.519 -234.247)" fill="#130033"/><path d="M1714.986,409.5l-47.49,19.422,43.064,39.208,37.791,12.249Z" transform="translate(-1463.264 -191.742)" fill="#130033"/><path d="M1739.641,557.536H1667.5l57.2-37.785L1762.493,532Z" transform="translate(-1477.405 -243.367)" fill="#130033"/><path d="M1860.684,427.909l-41.136-20.568,12.212,42.293,28.924-7.736Z" transform="translate(-1656.452 -190.732)" fill="#130033"/><path d="M1781.628,485.227l-43.064-39.208v13.99Z" transform="translate(-1534.332 -208.843)" fill="#130033"/><path d="M1753.347,535.331l-14.783-55.267,28.924-7.736,43.064,25.218Z" transform="translate(-1563.256 -221.162)" fill="#130033"/><path d="M1930.624,407.341l-56.684,40.171,22.186,26.913,46.711-24.791Z" transform="translate(-1767.528 -190.732)" fill="#130033"/><path d="M1939.772,542.143H1846.14l32.138-30.476,46.71-24.791Z" transform="translate(-1749.68 -227.974)" fill="#130033"/><path d="M1971.734,482.885v25.888l-9.952,31.5L1993.92,509.8Z" transform="translate(-1865.323 -226.105)" fill="#130033"/><path d="M2053.308,407.341,1996.623,430.6l-99.717,55.413,99.717-38.5Z" transform="translate(-1890.212 -190.732)" fill="#130033"/><path d="M2103.22,508.772l-61.431,12.609H2003.5l99.717-38.5Z" transform="translate(-1996.809 -226.105)" fill="#130033"/><path d="M2061.49,563.069H2003.5l6.509-18.892,61.431-12.609Z" transform="translate(-1965.03 -248.9)" fill="#130033"/><path d="M118.933,548.416h80.4l-75.717-15.751-35-32.392Z" transform="translate(925.348 -234.247)" fill="#130033"/><path d="M231,390.534l60.851,51.23.87,39.517-35-32.392Z" transform="translate(756.241 -182.863)" fill="#130033"/><path d="M9.484,569.612h44.56L4.814,545.541,19.65,561.956Z" transform="translate(1115.196 -255.443)" fill="#130033"/><path d="M69.492,553.861l71.047-8.32,14.837,16.416-10.167,7.656Z" transform="translate(979.471 -255.443)" fill="#130033"/><path d="M97.392,486.875l34.827,13.306,37.091,17.89-71.047,8.32Z" transform="translate(950.7 -227.973)" fill="#130033"/><path d="M1690.767,401.87l-11.234,7.7-17.266-3.642,36.146,29.015Z" transform="translate(-1410.546 -188.171)" fill="#130033"/><path d="M54.043,567.093,37.466,543.022l-13.5-2.861L4.814,543.022Z" transform="translate(1115.196 -252.924)" fill="#130033"/><path d="M167.143,467.733l34.827,13.306-17.414-32.795-9.616-2.251Z" transform="translate(880.949 -208.831)" fill="#130033"/><path d="M217.973,390.534l45.017,26.406,23.631,3.086-7.8,21.739Z" transform="translate(769.267 -182.863)" fill="#130033"/><path d="M134.483,520.232l-37.091-17.89,8.986-10.852,28.105,4.67Z" transform="translate(985.526 -230.135)" fill="#130033"/><path d="M150.246,450.226l15.139,5.063,11.26,16.879-8.985,10.852Z" transform="translate(915.26 -210.813)" fill="#130033"/><path d="M35.988,500.274l32.652,24.071-13.5-2.861-19.149,2.861Z" transform="translate(1084.021 -234.247)" fill="#130033"/><path d="M21.391,569.612,4.814,545.541l16.577,8.32Z" transform="translate(1147.848 -255.443)" fill="#130033"/><path d="M2155.562,574.172h-36.535l18.267-12.319,24.776-6.574Z" transform="translate(-2117.089 -260.003)" fill="#130033"/><path d="M2123.783,555.279h38.287l-24.776,6.574-18.268,12.318Z" transform="translate(-2117.089 -260.003)" fill="#130033"/><path d="M973.381,514.76h115.455l-.195-.742-17.32-66.4-.237-.12-40.013-20.37-.291.442Zm113.921-1.185H975.579l55.9-84.909,38.832,19.768Z" transform="translate(-434.644 -199.998)" fill="#06ffe1"/><path d="M868.164,532.047h66.608L889.6,487.814l-39.172-23.763Zm63.707-1.185H869.08L852.31,466.58l36.615,22.212Z" transform="translate(-215.197 -217.286)" fill="#06ffe1"/><path d="M1081.338,470.689l57.008-86.594-33.1-50.516v75.715l-24.95,60.845Zm55.59-86.6-53.216,80.835,22.717-55.4V337.549Z" transform="translate(-541.006 -156.194)" fill="#06ffe1"/><path d="M1079.274,405.717l-21.863-39.59-52.873-32.355,33.333,50.869.141.071Zm-22.749-38.744,19.845,35.937-37.679-19.183-30.267-46.19Z" transform="translate(-441.651 -156.285)" fill="#06ffe1"/><path d="M910.69,488.48l34.642-18.062-50.417-7.477-24.062,1.372Zm30.859-17.426-30.815,16.068-36.007-21.844,20.133-1.148Z" transform="translate(-236.619 -216.766)" fill="#06ffe1"/><path d="M985.008,393.908l23.4-1.335-.445-.819L963.9,310.238v45.445Zm21.47-2.411-20.795,1.185-20.6-37.3V314.921Z" transform="translate(-349.175 -145.265)" fill="#06ffe1"/><path d="M1098.032,357.964V313.178l-22.6,6.233-30.058,6.327Zm-1.185-43.231v41.116l-48.314-29.564,27.176-5.722Z" transform="translate(-482.122 -146.642)" fill="#06ffe1"/><path d="M1186.825,380.948V304.957l-20.146-36.419-26.364,41.095.209.322Zm-1.185-75.686v71.7l-43.914-67.336L1166.6,270.85Z" transform="translate(-621.402 -125.74)" fill="#06ffe1"/><path d="M1137.022,534.072h21.79l.152-.368,26.79-65.33Zm21-1.185h-18.644l41.691-56.207Z" transform="translate(-618.58 -219.31)" fill="#06ffe1"/><path d="M1140.071,474.715h48.822l.177-.24,45.458-61.283-46.685-71.584,5.417,77.029Zm48.225-1.185h-45.47l51.653-54.455-5.134-72.994,43.739,67.067Z" transform="translate(-668.976 -159.954)" fill="#06ffe1"/><path d="M1145.02,419.532l41.486-5.906-46.967-72.018Zm39.478-6.818-38.386,5.466-5.07-72.1Z" transform="translate(-620.672 -159.954)" fill="#06ffe1"/><path d="M1195.735,262.36l26.389-41.135-3.1-56.54-41.887,42.662Zm25.185-41.452-24.852,38.738L1178.5,207.657l39.495-40.226Z" transform="translate(-676.283 -77.112)" fill="#06ffe1"/><path d="M1063.728,306.286l.438-.1,51.973-12.411L1072.47,269.6h-29.037Zm49.165-12.957-48.563,11.6-18.888-34.143h26.724Z" transform="translate(-499.198 -126.236)" fill="#06ffe1"/><path d="M1252.8,420.192l-5.456-77.587L1215.3,388.249l9.273,21.67Zm-6.4-74.174,5.095,72.437-26.03-9.473-8.811-20.591Z" transform="translate(-727.249 -160.421)" fill="#06ffe1"/><path d="M1251.925,297.445l-19.21-56.832-8,48.829ZM1233.115,245.5l16.958,50.17-24.026-7.066Z" transform="translate(-731.381 -112.664)" fill="#06ffe1"/><path d="M1266.307,514.474h51.4l36.151-65.7-9.523-22.255Zm50.7-1.185h-48.066l75.041-84.585,8.561,20.006Z" transform="translate(-855.436 -199.713)" fill="#06ffe1"/><path d="M1214.553,533.4h11.806l.175-.185,53.044-55.921-28.453-10.355-.245.444Zm11.3-1.185h-9.293l35.115-63.817,25.8,9.39Z" transform="translate(-753.632 -218.638)" fill="#06ffe1"/><path d="M1281.07,514.385H1294.2l.177-.2,77.942-87.856-70.569,21.849-.094.3Zm12.595-1.185H1282.68l20.012-64.072,65.924-20.412Z" transform="translate(-881.741 -199.624)" fill="#06ffe1"/><path d="M1239,383.5l31.783-45.275-26.886-7.907-19.249,38.158Zm29.865-44.6-30.006,42.742-12.777-13.375,18.428-36.529Z" transform="translate(-750.205 -154.665)" fill="#06ffe1"/><path d="M1308.272,437.372l69.572-21.541-14.4-15.074H1282.5Zm67.392-22.105-66.921,20.72-23.962-34.044h78.155Z" transform="translate(-888.03 -187.65)" fill="#06ffe1"/><path d="M1272.821,369.059h82.307l19.436-38.529H1345.9Zm81.578-1.185h-76.791l68.586-36.159h26.445Z" transform="translate(-879.604 -154.767)" fill="#06ffe1"/><path d="M1258.938,290.642H1287.8l7.841-47.831L1267.955,261.8Zm27.856-1.185h-26.246l8.415-26.916,25.061-17.186Z" transform="translate(-793.299 -113.693)" fill="#06ffe1"/><path d="M1431.916,476.992l45.814-40.469-25.549-36.3L1411.4,435.279Zm44.234-40.654-43.855,38.738-19.425-39.5,39.094-33.6Z" transform="translate(-1056.462 -187.401)" fill="#06ffe1"/><path d="M1410.637,532.414h51.587l.131-.415,20.976-67.165-46.424,41.008Zm50.717-1.185h-47.881l24.247-24.527,43.216-38.171Z" transform="translate(-1061.656 -217.653)" fill="#06ffe1"/><path d="M1546.9,503.337l-20.766-42.225-31.172-4.889,30.412,38.993.155.059Zm-21.557-41.149,19.172,38.983-18.412-6.946-28.364-36.366Z" transform="translate(-1170.06 -213.621)" fill="#06ffe1"/><path d="M1495.2,561.725h91.859l26.058-26.36-21.024-7.932-.2.072Zm91.364-1.185H1502.1l89.983-31.846L1611,535.829Z" transform="translate(-1236.417 -246.964)" fill="#06ffe1"/><path d="M1323.9,352.76,1397.424,314l-44.662-19.946-.251.513Zm70.815-38.673-68.144,35.927,26.749-54.413Z" transform="translate(-929.626 -137.687)" fill="#06ffe1"/><path d="M1486.79,435.9l.209-.178,41.679-35.829-39.3,8.257-33.726,22.867ZM1524.418,402l-37.984,32.652-27.635-4.335,31.144-21.114Z" transform="translate(-1130.937 -187.246)" fill="#06ffe1"/><path d="M1403.724,358.445,1442.7,350.3l29.337-59.678-32.925,30.442Zm38.169-9.185-34.707,7.25,32.76-34.6,28.219-26.09Z" transform="translate(-1046.685 -136.081)" fill="#06ffe1"/><path d="M1526.953,426.956l34.676-23.51-21.521-14.652Zm32.568-23.512-30.289,20.537,11.493-33.335Z" transform="translate(-1201.806 -182.048)" fill="#06ffe1"/><path d="M1587.318,479.667l-30.683-39.3-24.984-18.746,6.534,42.279.348.111Zm-31.456-38.4,28.157,36.1-44.773-14.374-5.979-38.681Z" transform="translate(-1229.994 -197.417)" fill="#06ffe1"/><path d="M1590.109,426.649,1603,389.264l-29.033,2.709-8.738,16.008Zm11.17-36.034-11.759,34.111-22.76-17.079,7.944-14.555Z" transform="translate(-1263.527 -182.268)" fill="#06ffe1"/><path d="M1656.231,479.554l24.684-23.611L1659.6,436.258l-38.175-30.644Zm22.953-23.6-22.583,21.6-31.925-67.816,34.15,27.411Z" transform="translate(-1371.328 -189.924)" fill="#06ffe1"/><path d="M1651.676,454.784l-6.561-42.449-23.653-12.6,7.98,34.516Zm-7.642-41.683,5.953,38.511-19.474-17.983-7.311-31.623Z" transform="translate(-1342.109 -187.172)" fill="#06ffe1"/><path d="M1641.036,408.668l9.038-16.56-21.991-2.726-10.715,6.682Zm7.164-15.6-7.643,14-20.819-11.089,8.616-5.375Z" transform="translate(-1338.332 -182.323)" fill="#06ffe1"/><path d="M1483.725,383.56l35.269-37.252-22.93-1.634-.174.127-33.436,24.275Zm32.686-36.248-32.853,34.7-19.046-12.966,31.9-23.159Z" transform="translate(-1124.873 -161.389)" fill="#06ffe1"/><path d="M1089.429,175.369l49.413-37.065-25.8-73.643-26.7,54.44.009.154Zm48.009-37.493-46.947,35.216-2.944-53.748,25.317-51.62Z" transform="translate(-544.721 -30.277)" fill="#06ffe1"/><path d="M1108.221,1.989l-14.749,8.294-5.915,25.6,23.857,68.105ZM1109.343,0l3.5,111.639-26.513-75.69,6.109-26.441Z" transform="translate(-518.707)" fill="#06ffe1"/><path d="M1059.805,124.028l16.914-63.788-19.985-34.293Zm15.643-63.616L1060.735,115.9l-2.671-85.316Z" transform="translate(-466.851 -12.149)" fill="#06ffe1"/><path d="M1048.183,170.944,1029.8,84.294l-11.915,2.859-.09.342-15.936,60.1Zm-19.292-85.213,17.621,83.045-43.265-21.8,15.6-58.83Z" transform="translate(-409.133 -39.47)" fill="#06ffe1"/><path d="M1074.171,238.609h29.8L1131.3,224.76l-6.844-23.874Zm29.516-1.185h-25.963l46.071-34.558,6.1,21.278Z" transform="translate(-530.709 -94.062)" fill="#06ffe1"/><path d="M1040.641,282.258l.309-.238,25.885-20.073-41.7-17.973-28.015,14.195Zm23.883-20.017-23.991,18.6-40.88-22.63,25.528-12.934Z" transform="translate(-425.269 -114.238)" fill="#06ffe1"/><path d="M1046.6,242.743l-2.365-18.807-46.286-23.328,6.922,24.147Zm-3.461-18.035,2.027,16.126-39.311-16.945-6.02-21.006Z" transform="translate(-405.472 -93.932)" fill="#06ffe1"/><path d="M961.919,333.521l-72.313-56.885-26.3,20.395ZM889.6,278.14,955.269,329.8,865.717,296.66Z" transform="translate(-249.193 -129.531)" fill="#06ffe1"/><path d="M961.737,401.008l2.633-52.928-.407-.15-95.557-35.36,43.839,81.1.294.043Zm1.406-52.118-2.524,50.756-47.614-7.062-42.064-77.811Z" transform="translate(-254.356 -146.357)" fill="#06ffe1"/><path d="M857.492,242.763l77.155-4.007-43.4-37.391-.371.236-35.7,22.779Zm74.145-5.037-73.106,3.8-2.081-16.549,34.692-22.138Z" transform="translate(-217.601 -94.286)" fill="#06ffe1"/><path d="M953.376,167.77l37.171-23.719-26.31-8.267-29.955-58Zm34.392-23.351-33.589,21.433L937.267,86.144l26.144,50.621Z" transform="translate(-315.563 -36.421)" fill="#06ffe1"/><path d="M633.718,532.8H736.709l17.1-67.143L684.7,514.494Zm102.07-1.185H640.523l44.791-16.107,66.554-47.028Z" transform="translate(81.004 -218.038)" fill="#06ffe1"/><path d="M805.687,537.869l.349-.125,48.906-17.561-60.357-43.891L760.808,493.9Zm46.747-18.045L805.985,536.5,762.8,494.2l31.679-16.518Z" transform="translate(-87.711 -223.018)" fill="#06ffe1"/><path d="M822.406,475.076v-50.4l-.219-.178L764.705,377.86l-2.653,53.328Zm-1.185-49.837v47.512l-57.955-42.144,2.5-50.355Z" transform="translate(-55.838 -176.928)" fill="#06ffe1"/><path d="M858.8,329.159l43.233-46.036-37.063-13.535-.121.007-76.706,3.983Zm41.142-45.539L858.68,327.558,791.356,274.6l73.435-3.814Z" transform="translate(-149.34 -126.231)" fill="#06ffe1"/><path d="M819.391,386.755l-20.383-51.406,5.488-43.105-43.933,46.783Zm-16.53-91.039L797.793,335.5l.057.143,18.771,47.338L762.3,338.908Z" transform="translate(-52.03 -136.839)" fill="#06ffe1"/><path d="M653.669,471.792l69.556-49.151-89.747-51.756,20.191,50.92Zm67.36-49.049L654.853,469.5V421.578l-19.02-47.967Z" transform="translate(111.715 -173.662)" fill="#06ffe1"/><path d="M722.294,376.655,663.128,269.206l-25.119,13.61-5.366,42.137.341.2ZM662.658,270.807l56.551,102.7-85.291-49.187,5.189-40.753Z" transform="translate(113.09 -126.052)" fill="#06ffe1"/><path d="M465.593,533.274H573.317L536,494.613,482.556,466.67Zm104.936-1.185H467.118l16.216-63.674,52.035,27.2Z" transform="translate(350.897 -218.513)" fill="#06ffe1"/><path d="M694.372,376.9,687.305,304.1l-53.394-37.009Zm-8.194-72.132,6.459,66.526L637.381,270.942Z" transform="translate(140.337 -125.063)" fill="#06ffe1"/><path d="M529.68,480.447l32.713-46.789-37.317,16.594-50.665,1.3Zm29.3-43.975L529.3,478.915l-50.3-26.3,46.334-1.188.107-.047Z" transform="translate(357.133 -203.055)" fill="#06ffe1"/><path d="M549.572,406.669l49.933-1.281L576.554,353.1l-.185-.1-33.718-17.629Zm48.14-2.419-47.066,1.207-6.6-68.022,31.594,16.519Z" transform="translate(283.732 -157.033)" fill="#06ffe1"/><path d="M561.071,312.842,592.6,302.406l-29.971-55.292-35.135,48.17Zm29.808-11.116-29.7,9.834-31.917-16.688,33.219-45.546Z" transform="translate(298.705 -115.708)" fill="#06ffe1"/><path d="M634.233,295.3,670.3,245.846l-41.875,22.791-48.258-10.81Zm32.007-45.894-32.283,44.261L585.829,260.31l42.775,9.581Z" transform="translate(192.984 -115.114)" fill="#06ffe1"/><path d="M498.991,421.288l23.309-26.4,13.36-20.847L475.7,368.22Zm34.626-46.249-12.26,19.143-22.026,24.933L477.6,369.595Z" transform="translate(383.181 -172.415)" fill="#06ffe1"/><path d="M501.006,366.315l19.825-16.977-47.582.03-33.275,11.015Zm16.621-15.792-17.007,14.564-54.951-5.339,27.863-9.225Z" transform="translate(417.006 -163.573)" fill="#06ffe1"/><path d="M476.505,425.632l38.313-17.037V376.3l-13.875,21.662Zm37.129-17.808L480.992,422.34l20.9-23.662,11.747-18.328Z" transform="translate(403.593 -176.2)" fill="#06ffe1"/><path d="M1354.457,307l9.293-29.727-21.906,9.107h-33.56Zm7.405-27.659-8.139,26.034-39.883-17.811,28.349-.045Z" transform="translate(-887.646 -129.828)" fill="#06ffe1"/><path d="M1306.868,279.316l32.778-.045L1361.958,270,1330.7,259.662Zm32.432-1.185h-29.132l20.782-17.139,27.617,9.13Z" transform="translate(-885.102 -121.584)" fill="#06ffe1"/><path d="M391.246,444.068l-99.357-66.036v31.253l25.454,22.6Zm-98.172-63.827L386,442,317.872,430.77l-24.8-22.018Z" transform="translate(625.337 -177.009)" fill="#06ffe1"/><path d="M466.29,518.8l20.56-61.146-25.916-23.01L429.079,480.2Zm19.188-60.781-19.69,58.555-35.179-36.49,30.533-43.67Z" transform="translate(456.781 -203.514)" fill="#06ffe1"/><path d="M252.036,548.341h69.6l-31.172-49.492-52.681,24.564Zm67.452-1.185H252.723l-13.272-23.214,50.566-23.578Z" transform="translate(723.72 -233.58)" fill="#06ffe1"/><path d="M366.1,562.026h55.548l-14.338-25.08-13.441-8.871Zm53.506-1.185H368.6l25.51-31.188,12.312,8.126Z" transform="translate(555.468 -247.265)" fill="#06ffe1"/><path d="M313.212,514.069l53.66-25.021-73.784-12.166,6.776,28.377ZM362.9,489.594l-49.587,23.121-12.405-8.187-6.253-26.186Z" transform="translate(649.075 -223.294)" fill="#06ffe1"/><path d="M392.706,431.161,365.024,370.7l-.214-.089L313.468,349.16l-19.288,16.518.652.432Zm-28.566-59.543L389.9,427.871l-93.756-62.314,17.545-15.023Z" transform="translate(622.658 -163.49)" fill="#06ffe1"/><path d="M1531.271,549.156l97.277-34.428-48.96-15.717-23.921,22.884Zm93.572-34.373-89.6,31.71,21.292-23.793,23.362-22.346Z" transform="translate(-1271.021 -233.655)" fill="#06ffe1"/><path d="M1748.459,480.69l-34.19-72.625-48.878,19.989,43.975,39.964Zm-34.782-71.1,32.544,69.131-36.368-11.788-42.277-38.49Z" transform="translate(-1462.252 -191.071)" fill="#06ffe1"/><path d="M1665.524,557.555H1739.9l23.635-26.412-38.929-12.617-.237.157Zm73.851-1.185h-69.909l55.323-36.541,36.654,11.881Z" transform="translate(-1477.404 -242.794)" fill="#06ffe1"/><path d="M1831.183,449.358l29.925-8v-14.81l-.327-.164-42.345-21.172Zm28.74-8.912L1832,447.914l-11.676-40.438,39.6,19.8Z" transform="translate(-1656.283 -189.734)" fill="#06ffe1"/><path d="M1778.189,487.414,1729.953,443.5v15.671Zm-47.051-41.234,37.893,34.5-37.893-22.19Z" transform="translate(-1526.313 -207.662)" fill="#06ffe1"/><path d="M1751.605,535.718l58.686-38.762-44.1-25.824-29.735,7.954Zm56.444-38.7-55.724,36.807-14.418-53.9,28.113-7.519Z" transform="translate(-1561.874 -220.602)" fill="#06ffe1"/><path d="M1895.52,474.325l47.561-25.243-12.576-43.556-57.884,41.022Zm46.157-25.838-45.859,24.338-21.474-26.049,55.485-39.321Z" transform="translate(-1767.072 -189.883)" fill="#06ffe1"/><path d="M1844.689,541.967h95.888L1925.4,485.236l-47.5,25.233Zm94.345-1.185H1847.66l31-29.4,45.981-24.4Z" transform="translate(-1749.714 -227.206)" fill="#06ffe1"/><path d="M1992.846,508.3l-20.786-25.214v24.239l-9.288,29.495Zm1.617.1-34.2,32.432,10.615-33.6V479.783Z" transform="translate(-1865.056 -224.653)" fill="#06ffe1"/><path d="M1888.8,484.344l99.786-38.524.06-.043,60.92-43.173-61.487,25.225-99.78,55.444Zm99.222-39.576-91.7,35.4,92.268-51.274,51.82-21.256Z" transform="translate(-1881.891 -188.514)" fill="#06ffe1"/><path d="M2002.39,521.214l41.585-.012,61.9-12.706V481.261l-.806.31Zm41.406-1.185h-35.047l95.945-37.042v24.542Z" transform="translate(-1998.874 -225.345)" fill="#06ffe1"/><path d="M2001.87,562.972h59.251l10.386-32.876-62.749,12.88Zm58.384-1.185h-56.722L2009.659,544l60.111-12.338Z" transform="translate(-1964.227 -248.211)" fill="#06ffe1"/><path d="M110.677,545.937h86.482l-81.193-16.888L77.785,493.714Zm74.968-1.185H111.331L83.579,500.69,115.4,530.141Z" transform="translate(933.278 -231.176)" fill="#06ffe1"/><path d="M293.81,480.77l-.906-41.181-63.075-53.1,27.954,60.943Zm-2.079-40.619L292.565,478l-33.89-31.363L233.1,390.792Z" transform="translate(755.775 -180.967)" fill="#06ffe1"/><path d="M5,545.764l13.212,14.618-9.269,6.98H49.168Zm49.291,22.782H5.4l11.064-8.331L0,542Z" transform="translate(1117.51 -253.786)" fill="#06ffe1"/><path d="M147.4,569.7l10.9-8.206-15.475-17.123-.3.035-74.673,8.747Zm9.151-8.372-9.436,7.1-71.88-14.953,67.117-7.861Z" transform="translate(977.418 -254.893)" fill="#06ffe1"/><path d="M94.364,526.293l.647-.075,73.069-8.559-38.926-18.775-35.7-13.64Zm69.533-9.337-68.378,8.009-.835-37.984,34,12.99Z" transform="translate(954.022 -227.21)" fill="#06ffe1"/><path d="M1699.874,435.61l-8.226-35.581-11.742,8.045-19.447-4.1Zm-8.99-33.621,7.065,30.558-32.877-26.391,15.086,3.182Z" transform="translate(-1411.043 -187.309)" fill="#06ffe1"/><path d="M35.757,543.023l-13.168-2.791L5.429,542.8l45.49,22.242Zm.708-1.062,17.992,26.126-52.97-25.9,21.14-3.158Z" transform="translate(1116.552 -252.394)" fill="#06ffe1"/><path d="M201.61,481.54l-18.28-34.427-10.393-2.432-8.169,22.784Zm-19.073-33.4,16.547,31.163-32.81-12.535,7.422-20.7Z" transform="translate(882.573 -208.216)" fill="#06ffe1"/><path d="M277.964,442.317l8.332-23.233-24.24-3.165-44.913-26.346-.682.965Zm6.721-22.25-7.261,20.246-54.86-46.186,39.1,22.934.119.016Z" transform="translate(770.398 -182.413)" fill="#06ffe1"/><path d="M134.9,520.612V495.1l-28.937-4.808-9.684,11.7ZM133.716,496.1v22.626l-35.56-17.151,8.286-10.007Z" transform="translate(985.701 -229.571)" fill="#06ffe1"/><path d="M167.384,483.171l9.83-11.873L165.6,453.884l-16.739-5.6Zm8.356-11.949-8.141,9.83-16.3-30.7,13.539,4.53Z" transform="translate(915.427 -209.904)" fill="#06ffe1"/><path d="M66.984,524.458l-35.8-26.39V524l19.723-2.947Zm-16.038-4.609L32.37,522.625V500.414l29.507,21.751Z" transform="translate(1088.231 -233.214)" fill="#06ffe1"/><path d="M21.483,552.848,7.294,545.726l14.188,20.6Zm1.184-.731v18.019L3.7,542.6Z" transform="translate(1147.164 -254.064)" fill="#06ffe1"/><path d="M2161.351,555.382l-23.6,6.263-16.579,11.179h34.175Zm-5.164,18.627h-38.9l19.875-13.4,26.029-6.939Z" transform="translate(-2117.291 -259.248)" fill="#06ffe1"/><path d="M2110.485,575.007l19.469-13.128,29.069-7.713h-43.29Zm39.454-19.657-20.565,5.489-16.985,11.453,4.266-16.942Z" transform="translate(-2109.5 -259.482)" fill="#06ffe1"/></svg>