<svg xmlns="http://www.w3.org/2000/svg" width="642.486" height="744.649" viewBox="0 0 642.486 744.649">
  <g id="Group_73" data-name="Group 73" transform="translate(1.859 596.6) rotate(-90)">
    <path id="Path_221" data-name="Path 221" d="M.278,591.514,324.014,0l-.278,1.7L0,593.218Z" transform="matrix(0.985, -0.171, 0.171, 0.985, -148.049, 54.841)" fill="#0672ff"/>
    <path id="Path_222" data-name="Path 222" d="M.3,590.8,317.435,0l-.3,1.7L0,592.5Z" transform="matrix(0.983, -0.182, 0.182, 0.983, -137.641, 57.004)" fill="#0672ff"/>
    <path id="Path_223" data-name="Path 223" d="M.315,589.474,311.664,0l-.315,1.691L0,591.165Z" transform="matrix(0.981, -0.195, 0.195, 0.981, -127.925, 59.806)" fill="#0672ff"/>
    <path id="Path_224" data-name="Path 224" d="M.337,587.678,306.965,0l-.337,1.681L0,589.359Z" transform="translate(-119.118 63.306) rotate(-12.068)" fill="#0672ff"/>
    <path id="Path_225" data-name="Path 225" d="M.363,587.044,304.436,0l-.363,1.668L0,588.713Z" transform="translate(-112.197 67.108) rotate(-13.079)" fill="#0672ff"/>
    <path id="Path_226" data-name="Path 226" d="M.391,582.4,301.939,0l-.391,1.653L0,584.055Z" transform="matrix(0.97, -0.245, 0.245, 0.97, -105.1, 73.214)" fill="#0672ff"/>
    <path id="Path_227" data-name="Path 227" d="M.424,576.891,301.382,0l-.424,1.635L0,578.526Z" transform="translate(-99.507 80.796) rotate(-15.47)" fill="#0672ff"/>
    <path id="Path_228" data-name="Path 228" d="M.464,572.538,304.9,0l-.464,1.61L0,574.149Z" transform="translate(-97.164 89.85) rotate(-17.106)" fill="#0672ff"/>
    <path id="Path_229" data-name="Path 229" d="M.511,567.929,313.243,0l-.511,1.574L0,569.5Z" transform="matrix(0.945, -0.328, 0.328, 0.945, -98.362, 101.852)" fill="#0672ff"/>
    <path id="Path_230" data-name="Path 230" d="M.565,557.927,324.312,0l-.565,1.529L0,559.456Z" transform="matrix(0.93, -0.369, 0.369, 0.93, -100.665, 119.12)" fill="#0672ff"/>
    <path id="Path_231" data-name="Path 231" d="M.629,545.261,343.251,0l-.629,1.461L0,546.722Z" transform="translate(-107.359 143.495) rotate(-24.858)" fill="#0672ff"/>
    <path id="Path_232" data-name="Path 232" d="M.7,524.386,369.251,0l-.7,1.365L0,525.751Z" transform="matrix(0.875, -0.485, 0.485, 0.875, -115.548, 178.983)" fill="#0672ff"/>
    <path id="Path_233" data-name="Path 233" d="M.772,493.2,409.417,0l-.772,1.216L0,494.414Z" transform="translate(-125.654 233.039) rotate(-34.766)" fill="#0672ff"/>
    <path id="Path_234" data-name="Path 234" d="M.822,440.642,464.628,0l-.822.991L0,441.634Z" transform="translate(-126.913 315.253) rotate(-42.808)" fill="#0672ff"/>
    <path id="Path_235" data-name="Path 235" d="M.782,350.836,534.69,0l-.782.667L0,351.5Z" transform="translate(-95.158 433.666) rotate(-54.249)" fill="#0672ff"/>
    <path id="Path_236" data-name="Path 236" d="M.526,203.509,605.479,0l-.526.293L0,203.8Z" transform="translate(15.279 569.653) rotate(-70.184)" fill="#0672ff"/>
    <rect id="Rectangle_19" data-name="Rectangle 19" width="0.104" height="638.154" transform="translate(223.822 0.307)" fill="#0672ff"/>
    <path id="Path_237" data-name="Path 237" d="M203.436.526,203.73,0,.293,605.013,0,605.539Z" transform="translate(35.538 69.046) rotate(-19.807)" fill="#0672ff"/>
    <path id="Path_238" data-name="Path 238" d="M350.9.782,351.567,0,.667,533.716,0,534.5Z" transform="translate(-54.762 205.281) rotate(-35.767)" fill="#0672ff"/>
    <path id="Path_239" data-name="Path 239" d="M440.613.822,441.6,0,.992,463.433,0,464.254Z" transform="matrix(0.679, -0.734, 0.734, 0.679, -66.168, 323.767)" fill="#0672ff"/>
    <path id="Path_240" data-name="Path 240" d="M493.188.772,494.4,0,1.217,408.62,0,409.392Z" transform="translate(-44.844 405.741) rotate(-55.235)" fill="#0672ff"/>
    <path id="Path_241" data-name="Path 241" d="M524.863.7l1.364-.7L1.364,369.316l-1.364.7Z" transform="matrix(0.485, -0.874, 0.874, 0.485, -15.106, 459.599)" fill="#0672ff"/>
    <path id="Path_242" data-name="Path 242" d="M544.846.628,546.307,0,1.461,342.133,0,342.761Z" transform="translate(14.222 495.311) rotate(-65.168)" fill="#0672ff"/>
    <path id="Path_243" data-name="Path 243" d="M558.06.565,559.589,0,1.529,323.873,0,324.438Z" transform="matrix(0.369, -0.93, 0.93, 0.369, 40.62, 519.659)" fill="#0672ff"/>
    <path id="Path_244" data-name="Path 244" d="M567.167.51,568.741,0,1.575,312.129,0,312.64Z" transform="translate(63.753 536.783) rotate(-70.86)" fill="#0672ff"/>
    <path id="Path_245" data-name="Path 245" d="M573.676.465,575.286,0,1.61,305.207,0,305.672Z" transform="matrix(0.295, -0.956, 0.956, 0.295, 83.931, 549.192)" fill="#0672ff"/>
    <path id="Path_246" data-name="Path 246" d="M578.472.425,580.105,0,1.634,301.908,0,302.332Z" transform="translate(101.615 558.424) rotate(-74.483)" fill="#0672ff"/>
    <path id="Path_247" data-name="Path 247" d="M582.1.391,583.751,0,1.653,301.384,0,301.775Z" transform="translate(117.237 565.458) rotate(-75.834)" fill="#0672ff"/>
    <path id="Path_248" data-name="Path 248" d="M584.9.362,586.571,0,1.669,303.023,0,303.385Z" transform="translate(131.167 570.927) rotate(-76.973)" fill="#0672ff"/>
    <path id="Path_249" data-name="Path 249" d="M587.111.337,588.792,0,1.681,306.374,0,306.711Z" transform="translate(143.704 575.257) rotate(-77.944)" fill="#0672ff"/>
    <path id="Path_250" data-name="Path 250" d="M588.883.315,590.574,0,1.69,311.1,0,311.419Z" transform="translate(155.088 578.74) rotate(-78.783)" fill="#0672ff"/>
    <path id="Path_251" data-name="Path 251" d="M590.325.295l1.7-.295L1.7,316.957l-1.7.295Z" transform="translate(165.512 581.581) rotate(-79.513)" fill="#0672ff"/>
    <path id="Path_252" data-name="Path 252" d="M593.856.279,595.56,0,1.7,324.576l-1.7.279Z" transform="translate(174.327 584.86) rotate(-80.115)" fill="#0672ff"/>
    <rect id="Rectangle_36" data-name="Rectangle 36" width="110.602" height="1.752" transform="translate(168.573 1.588)" fill="#0672ff"/>
    <rect id="Rectangle_37" data-name="Rectangle 37" width="113.397" height="1.752" transform="translate(167.175 5.542)" fill="#0672ff"/>
    <rect id="Rectangle_38" data-name="Rectangle 38" width="116.336" height="1.753" transform="translate(165.706 9.7)" fill="#0672ff"/>
    <rect id="Rectangle_39" data-name="Rectangle 39" width="119.432" height="1.753" transform="translate(164.158 14.079)" fill="#0672ff"/>
    <rect id="Rectangle_40" data-name="Rectangle 40" width="122.697" height="1.753" transform="translate(162.525 18.697)" fill="#0672ff"/>
    <rect id="Rectangle_41" data-name="Rectangle 41" width="126.146" height="1.752" transform="translate(160.801 23.576)" fill="#0672ff"/>
    <rect id="Rectangle_42" data-name="Rectangle 42" width="129.794" height="1.752" transform="translate(158.977 28.736)" fill="#0672ff"/>
    <rect id="Rectangle_43" data-name="Rectangle 43" width="133.659" height="1.752" transform="translate(157.044 34.204)" fill="#0672ff"/>
    <rect id="Rectangle_44" data-name="Rectangle 44" width="137.762" height="1.753" transform="translate(154.993 40.007)" fill="#0672ff"/>
    <rect id="Rectangle_45" data-name="Rectangle 45" width="142.124" height="1.753" transform="translate(152.812 46.178)" fill="#0672ff"/>
    <rect id="Rectangle_46" data-name="Rectangle 46" width="146.772" height="1.753" transform="translate(150.488 52.753)" fill="#0672ff"/>
    <rect id="Rectangle_47" data-name="Rectangle 47" width="151.734" height="1.752" transform="translate(148.007 59.773)" fill="#0672ff"/>
    <rect id="Rectangle_48" data-name="Rectangle 48" width="157.043" height="1.752" transform="translate(145.352 67.283)" fill="#0672ff"/>
    <rect id="Rectangle_49" data-name="Rectangle 49" width="162.737" height="1.752" transform="translate(142.505 75.338)" fill="#0672ff"/>
    <rect id="Rectangle_50" data-name="Rectangle 50" width="168.86" height="1.752" transform="translate(139.444 83.999)" fill="#0672ff"/>
    <rect id="Rectangle_51" data-name="Rectangle 51" width="175.462" height="1.752" transform="translate(136.143 93.338)" fill="#0672ff"/>
    <rect id="Rectangle_52" data-name="Rectangle 52" width="182.6" height="1.753" transform="translate(132.574 103.436)" fill="#0672ff"/>
    <rect id="Rectangle_53" data-name="Rectangle 53" width="190.345" height="1.752" transform="translate(128.702 114.391)" fill="#0672ff"/>
    <rect id="Rectangle_54" data-name="Rectangle 54" width="198.775" height="1.752" transform="translate(124.487 126.316)" fill="#0672ff"/>
    <rect id="Rectangle_55" data-name="Rectangle 55" width="207.986" height="1.752" transform="translate(119.881 139.347)" fill="#0672ff"/>
    <rect id="Rectangle_56" data-name="Rectangle 56" width="218.093" height="1.753" transform="translate(114.827 153.643)" fill="#0672ff"/>
    <rect id="Rectangle_57" data-name="Rectangle 57" width="229.232" height="1.753" transform="translate(109.258 169.401)" fill="#0672ff"/>
    <rect id="Rectangle_58" data-name="Rectangle 58" width="241.57" height="1.753" transform="translate(103.089 186.854)" fill="#0672ff"/>
    <rect id="Rectangle_59" data-name="Rectangle 59" width="255.312" height="1.752" transform="translate(96.218 206.294)" fill="#0672ff"/>
    <rect id="Rectangle_60" data-name="Rectangle 60" width="270.712" height="1.752" transform="translate(88.518 228.078)" fill="#0672ff"/>
    <rect id="Rectangle_61" data-name="Rectangle 61" width="288.089" height="1.752" transform="translate(79.83 252.659)" fill="#0672ff"/>
    <rect id="Rectangle_62" data-name="Rectangle 62" width="307.849" height="1.753" transform="translate(69.949 280.612)" fill="#0672ff"/>
    <rect id="Rectangle_63" data-name="Rectangle 63" width="330.52" height="1.753" transform="translate(58.614 312.682)" fill="#0672ff"/>
    <rect id="Rectangle_64" data-name="Rectangle 64" width="356.795" height="1.753" transform="translate(45.476 349.851)" fill="#0672ff"/>
    <rect id="Rectangle_65" data-name="Rectangle 65" width="387.609" height="1.752" transform="translate(30.069 393.44)" fill="#0672ff"/>
    <rect id="Rectangle_66" data-name="Rectangle 66" width="424.249" height="1.752" transform="translate(11.75 445.271)" fill="#0672ff"/>
    <rect id="Rectangle_67" data-name="Rectangle 67" width="468.538" height="1.752" transform="translate(-10.395 507.922)" fill="#0672ff"/>
    <rect id="Rectangle_68" data-name="Rectangle 68" width="523.152" height="1.753" transform="translate(-37.702 585.179)" fill="#0672ff"/>
  </g>
</svg>
