<?xml version="1.0" encoding="utf-8"?>
<!-- Generator: Adobe Illustrator 26.4.1, SVG Export Plug-In . SVG Version: 6.00 Build 0)  -->
<svg version="1.1" baseProfile="tiny" id="Group_68"
	 xmlns="http://www.w3.org/2000/svg" xmlns:xlink="http://www.w3.org/1999/xlink" x="0px" y="0px" viewBox="0 0 228.2 26"
	 overflow="visible" xml:space="preserve">
<g>
	<path fill="#EB00FF" d="M2.1,21V3.1h4.5l5,10.8l5-10.8h4.5V21h-3.7V9.7l-4.2,9h-3.1l-4.2-9V21H2.1z"/>
	<path fill="#EB00FF" d="M25.4,21V3.1h3.7V21H25.4z"/>
	<path fill="#EB00FF" d="M31.8,20.3l5.3-17.2h5.7l5.3,17.2L47.7,21h-3.1l-1.1-3.6h-7L35.4,21h-3.1L31.8,20.3z M37.5,14h5l-2.3-7.5
		h-0.4L37.5,14z"/>
	<path fill="#EB00FF" d="M50.8,21V3.1h4.5l5,10.8l5-10.8h4.5V21H66V9.7l-4.2,9h-3.1l-4.2-9V21H50.8z"/>
	<path fill="#EB00FF" d="M74,21V3.1h3.7V21H74z"/>
</g>
<g>
	<path fill="#5400FF" d="M159,21h-6.2v-4.3h1.4v2.8h1.2v-2.5h1.4v2.5h2.2V21z"/>
	<path fill="#5400FF" d="M157.4,15.8h-3c-1.1,0-1.6-0.5-1.6-1.6v-2c0-1.1,0.5-1.6,1.6-1.6h3c1.1,0,1.6,0.5,1.6,1.6v2
		C159,15.3,158.5,15.8,157.4,15.8z M157.5,14.2C157.6,14.2,157.6,14.2,157.5,14.2l0.1-2c0-0.1,0-0.1-0.1-0.1h-3.2
		c-0.1,0-0.1,0-0.1,0.1v1.9c0,0.1,0,0.1,0.1,0.1H157.5z"/>
	<path fill="#5400FF" d="M159,9.3h-6.2V6.2c0-1.1,0.5-1.6,1.6-1.6h1c0.7,0,1.2,0.3,1.4,0.8l1.8-0.9l0.3,0.2V6l-2,1v0.7h2V9.3z
		 M155.6,7.7V6.3c0-0.1,0-0.1-0.1-0.1h-1.2c-0.1,0-0.1,0-0.1,0.1v1.4H155.6z"/>
</g>
<g>
	<path fill="#FFFFFF" d="M83.6,16.4V7.6c0-3,1.5-4.6,4.6-4.6h6.7l2,1.6v2.5h-8.5c-0.2,0-0.3,0.1-0.3,0.3v9.2c0,0.2,0.1,0.3,0.3,0.3
		H97v2.5l-2,1.6h-6.7C85.1,21,83.6,19.5,83.6,16.4z"/>
	<path fill="#FFFFFF" d="M98.7,20.2l5.1-17.1h6.8l5.1,17.1L115,21h-3.8l-0.9-3.2h-6.4L103,21h-3.8L98.7,20.2z M105.1,13.7h4.1
		l-1.9-6.6H107L105.1,13.7z"/>
	<path fill="#FFFFFF" d="M117.3,19.4v-2.5h8.1c0.2,0,0.3-0.1,0.3-0.3v-1.8c0-0.2-0.1-0.4-0.3-0.4l-4.8-1c-2.2-0.4-3.2-1.9-3.2-4.3
		V7.6c0-3,1.5-4.6,4.6-4.6h5.8l2,1.6v2.5h-7.6c-0.2,0-0.3,0.1-0.3,0.3v1.7c0,0.2,0.1,0.4,0.3,0.4l4.8,0.9c2.2,0.5,3.2,1.9,3.2,4.4
		v1.6c0,3.1-1.5,4.6-4.6,4.6h-6.3L117.3,19.4z"/>
	<path fill="#FFFFFF" d="M133.5,21V3.1h4.5v6.8h5.4V3.1h4.5V21h-4.5v-7.1H138V21H133.5z"/>
</g>
<g>
	<path fill="#FFFFFF" d="M163,16.4V7.6c0-3,1.5-4.6,4.6-4.6h6.7l2,1.6v2.5h-8.5c-0.2,0-0.3,0.1-0.3,0.3v9.2c0,0.2,0.1,0.3,0.3,0.3
		h8.5v2.5l-2,1.6h-6.7C164.5,21,163,19.5,163,16.4z"/>
	<path fill="#FFFFFF" d="M178,20.2l5.1-17.1h6.8l5.1,17.1l-0.5,0.8h-3.8l-0.9-3.2h-6.4l-0.9,3.2h-3.8L178,20.2z M184.5,13.7h4.1
		l-1.9-6.6h-0.3L184.5,13.7z"/>
	<path fill="#FFFFFF" d="M197.4,21V3.1h8.8c3,0,4.6,1.5,4.6,4.6v3c0,2.1-0.7,3.5-2.2,4.2l2.7,5.3l-0.5,0.9h-3.9l-3-5.8h-2V21H197.4z
		 M201.9,11.1h4.1c0.2,0,0.3-0.1,0.3-0.3V7.4c0-0.2-0.1-0.3-0.3-0.3h-4.1V11.1z"/>
	<path fill="#FFFFFF" d="M213.6,19.4v-2.5h8.1c0.2,0,0.3-0.1,0.3-0.3v-1.8c0-0.2-0.1-0.4-0.3-0.4l-4.8-1c-2.2-0.4-3.2-1.9-3.2-4.3
		V7.6c0-3,1.5-4.6,4.6-4.6h5.8l2,1.6v2.5h-7.6c-0.2,0-0.3,0.1-0.3,0.3v1.7c0,0.2,0.1,0.4,0.3,0.4l4.8,0.9c2.2,0.5,3.2,1.9,3.2,4.4
		v1.6c0,3.1-1.5,4.6-4.6,4.6h-6.3L213.6,19.4z"/>
</g>
</svg>
